<?xml version="1.0" encoding="UTF-8"?>
<svg xmlns="http://www.w3.org/2000/svg" xmlns:xlink="http://www.w3.org/1999/xlink" width="32pt" height="36pt" viewBox="0 0 32 36" version="1.1">
<defs>
<linearGradient id="linear0" gradientUnits="userSpaceOnUse" x1="0.5" y1="1" x2="0.5" y2="0.000000000000000031" gradientTransform="matrix(31.957031,0,0,36,0,0)">
<stop offset="0" style="stop-color:rgb(100%,65.098039%,4.313725%);stop-opacity:1;"/>
<stop offset="1" style="stop-color:rgb(100%,84.705882%,21.960784%);stop-opacity:1;"/>
</linearGradient>
</defs>
<g id="surface1">
<path style=" stroke:none;fill-rule:nonzero;fill:url(#linear0);" d="M 31.691406 26.207031 C 32.308594 27.285156 31.992188 28.609375 30.84375 29.753906 C 30.824219 29.773438 30.804688 29.792969 30.785156 29.808594 C 30.765625 29.824219 28.78125 31.355469 26.453125 32.867188 C 23.203125 34.976562 20.9375 36 19.527344 36 C 16.917969 36 9.214844 34.585938 6.71875 34.113281 L 6.71875 34.589844 C 6.71875 34.949219 6.425781 35.242188 6.066406 35.242188 L 2.195312 35.242188 C 1.835938 35.242188 1.542969 34.949219 1.542969 34.589844 L 1.542969 26.6875 C 1.542969 26.328125 1.835938 26.035156 2.195312 26.035156 L 6.066406 26.035156 C 6.425781 26.035156 6.71875 26.328125 6.71875 26.6875 L 6.71875 27.082031 L 6.953125 27.082031 C 7.511719 25.15625 9.226562 23.789062 11.21875 23.71875 C 11.273438 23.71875 11.328125 23.71875 11.386719 23.71875 C 12.964844 23.71875 14.457031 24.5 15.363281 25.78125 L 20.589844 25.78125 C 21.785156 25.78125 22.808594 26.511719 23.242188 27.550781 L 28.054688 25.214844 C 29.335938 24.496094 30.960938 24.9375 31.691406 26.207031 Z M 29.949219 28.804688 C 30.300781 28.449219 30.988281 27.605469 30.558594 26.855469 C 30.183594 26.203125 29.34375 25.980469 28.679688 26.359375 C 28.667969 26.363281 28.65625 26.371094 28.640625 26.378906 L 23.449219 28.898438 C 23.320312 30.359375 22.085938 31.511719 20.589844 31.511719 L 13.1875 31.511719 C 12.828125 31.511719 12.535156 31.21875 12.535156 30.859375 C 12.535156 30.5 12.828125 30.210938 13.1875 30.210938 L 20.589844 30.210938 C 21.453125 30.210938 22.15625 29.507812 22.15625 28.644531 C 22.15625 27.785156 21.453125 27.082031 20.589844 27.082031 L 15.011719 27.082031 C 14.78125 27.082031 14.566406 26.960938 14.449219 26.765625 C 13.808594 25.6875 12.636719 25.019531 11.386719 25.019531 C 11.34375 25.019531 11.304688 25.019531 11.265625 25.023438 C 9.769531 25.074219 8.492188 26.152344 8.15625 27.644531 L 8.101562 27.878906 C 8.035156 28.175781 7.773438 28.386719 7.464844 28.386719 L 6.71875 28.386719 L 6.71875 32.785156 C 8.867188 33.195312 16.972656 34.695312 19.527344 34.695312 C 21.828125 34.695312 27.796875 30.46875 29.949219 28.804688 Z M 5.414062 33.941406 L 5.414062 27.339844 L 2.847656 27.339844 L 2.847656 33.941406 Z M 10.753906 31.511719 C 10.710938 31.511719 10.667969 31.507812 10.625 31.5 C 10.582031 31.492188 10.542969 31.480469 10.503906 31.460938 C 10.464844 31.445312 10.425781 31.425781 10.390625 31.402344 C 10.355469 31.378906 10.320312 31.351562 10.292969 31.320312 C 10.171875 31.199219 10.101562 31.03125 10.101562 30.859375 C 10.101562 30.6875 10.171875 30.519531 10.292969 30.398438 C 10.320312 30.371094 10.355469 30.34375 10.390625 30.320312 C 10.425781 30.296875 10.464844 30.277344 10.503906 30.257812 C 10.542969 30.242188 10.582031 30.230469 10.625 30.222656 C 10.710938 30.203125 10.796875 30.203125 10.878906 30.222656 C 10.921875 30.230469 10.960938 30.242188 11.003906 30.257812 C 11.042969 30.277344 11.078125 30.296875 11.113281 30.320312 C 11.152344 30.34375 11.183594 30.371094 11.214844 30.398438 C 11.335938 30.519531 11.40625 30.6875 11.40625 30.859375 C 11.40625 31.03125 11.335938 31.199219 11.214844 31.320312 C 11.183594 31.351562 11.152344 31.378906 11.113281 31.402344 C 11.078125 31.425781 11.042969 31.445312 11.003906 31.460938 C 10.960938 31.480469 10.921875 31.492188 10.878906 31.5 C 10.839844 31.507812 10.796875 31.511719 10.753906 31.511719 Z M 7.972656 16.011719 C 3.578125 16.011719 0 12.417969 0 8.003906 C 0 3.589844 3.578125 0 7.972656 0 C 12.371094 0 15.949219 3.589844 15.949219 8.003906 C 15.949219 12.417969 12.371094 16.011719 7.972656 16.011719 Z M 7.972656 1.253906 C 4.246094 1.253906 1.214844 4.28125 1.214844 8.003906 C 1.214844 11.726562 4.246094 14.753906 7.972656 14.753906 C 11.699219 14.753906 14.734375 11.726562 14.734375 8.003906 C 14.734375 4.28125 11.699219 1.253906 7.972656 1.253906 Z M 7.972656 13.097656 C 5.160156 13.097656 2.875 10.8125 2.875 8.003906 C 2.875 5.195312 5.160156 2.910156 7.972656 2.910156 C 10.785156 2.910156 13.074219 5.195312 13.074219 8.003906 C 13.074219 10.8125 10.785156 13.097656 7.972656 13.097656 Z M 7.972656 4.214844 C 5.882812 4.214844 4.179688 5.914062 4.179688 8.003906 C 4.179688 10.097656 5.882812 11.796875 7.972656 11.796875 C 10.066406 11.796875 11.769531 10.097656 11.769531 8.003906 C 11.769531 5.914062 10.066406 4.214844 7.972656 4.214844 Z M 7.515625 10.113281 C 6.734375 10.085938 6.09375 9.683594 6.09375 9.265625 C 6.09375 9.042969 6.289062 8.71875 6.539062 8.71875 C 6.8125 8.71875 7.035156 9.101562 7.515625 9.1875 L 7.515625 8.132812 C 6.914062 7.902344 6.210938 7.625 6.210938 6.789062 C 6.210938 5.960938 6.824219 5.566406 7.515625 5.46875 L 7.515625 5.285156 C 7.515625 5.195312 7.621094 5.109375 7.765625 5.109375 C 7.886719 5.109375 8.011719 5.195312 8.011719 5.285156 L 8.011719 5.449219 C 8.417969 5.460938 9.179688 5.566406 9.179688 6.015625 C 9.179688 6.191406 9.0625 6.550781 8.773438 6.550781 C 8.558594 6.550781 8.4375 6.339844 8.011719 6.308594 L 8.011719 7.257812 C 8.605469 7.480469 9.296875 7.785156 9.296875 8.667969 C 9.296875 9.472656 8.773438 9.964844 8.011719 10.085938 L 8.011719 10.277344 C 8.011719 10.367188 7.886719 10.453125 7.765625 10.453125 C 7.621094 10.453125 7.515625 10.367188 7.515625 10.277344 Z M 7.582031 7.101562 L 7.582031 6.328125 C 7.289062 6.386719 7.164062 6.535156 7.164062 6.691406 C 7.164062 6.882812 7.332031 7 7.582031 7.101562 Z M 7.945312 8.308594 L 7.945312 9.179688 C 8.167969 9.128906 8.34375 9.003906 8.34375 8.769531 C 8.34375 8.554688 8.179688 8.417969 7.945312 8.308594 Z M 23.957031 23.308594 C 19.546875 23.308594 15.957031 19.726562 15.957031 15.320312 C 15.957031 10.910156 19.546875 7.328125 23.957031 7.328125 C 28.371094 7.328125 31.957031 10.910156 31.957031 15.320312 C 31.957031 19.726562 28.371094 23.308594 23.957031 23.308594 Z M 23.957031 8.539062 C 20.214844 8.539062 17.171875 11.582031 17.171875 15.316406 C 17.171875 19.054688 20.214844 22.097656 23.957031 22.097656 C 27.699219 22.097656 30.746094 19.054688 30.746094 15.316406 C 30.746094 11.582031 27.699219 8.539062 23.957031 8.539062 Z M 18.859375 15.316406 C 18.859375 12.507812 21.144531 10.222656 23.957031 10.222656 C 26.769531 10.222656 29.058594 12.507812 29.058594 15.316406 C 29.058594 18.128906 26.769531 20.414062 23.957031 20.414062 C 21.144531 20.414062 18.859375 18.128906 18.859375 15.316406 Z M 20.164062 15.316406 C 20.164062 17.410156 21.863281 19.109375 23.957031 19.109375 C 26.050781 19.109375 27.753906 17.410156 27.753906 15.316406 C 27.753906 13.226562 26.050781 11.527344 23.957031 11.527344 C 21.863281 11.527344 20.164062 13.226562 20.164062 15.316406 Z M 25.75 17.230469 C 25.75 17.453125 25.652344 17.675781 25.457031 17.675781 L 22.691406 17.675781 C 22.496094 17.675781 22.398438 17.453125 22.398438 17.230469 C 22.398438 17.011719 22.496094 16.789062 22.691406 16.789062 L 23.015625 16.789062 L 23.226562 15.289062 L 22.917969 15.289062 C 22.757812 15.289062 22.671875 15.113281 22.671875 14.933594 C 22.671875 14.757812 22.757812 14.574219 22.917969 14.574219 L 23.332031 14.574219 L 23.394531 14.125 C 23.519531 13.265625 24.300781 12.671875 25.148438 12.671875 L 25.425781 12.671875 C 25.632812 12.671875 25.75 12.894531 25.75 13.109375 C 25.75 13.324219 25.632812 13.550781 25.425781 13.550781 L 25.117188 13.550781 C 24.65625 13.550781 24.453125 13.792969 24.40625 14.125 L 24.339844 14.574219 L 25.039062 14.574219 C 25.203125 14.574219 25.285156 14.757812 25.285156 14.933594 C 25.285156 15.113281 25.203125 15.289062 25.039062 15.289062 L 24.238281 15.289062 L 24.023438 16.789062 L 25.457031 16.789062 C 25.652344 16.789062 25.75 17.011719 25.75 17.230469 Z M 25.75 17.230469 "/>
</g>
</svg>
