<?xml version="1.0" encoding="UTF-8"?>
<svg xmlns="http://www.w3.org/2000/svg" xmlns:xlink="http://www.w3.org/1999/xlink" width="30pt" height="10pt" viewBox="0 0 30 10" version="1.1">
<g id="surface1">
<path style=" stroke:none;fill-rule:nonzero;fill:rgb(100%,100%,100%);fill-opacity:1;" d="M 9.769531 3.699219 L 8.847656 3.699219 L 8.847656 0.832031 L 7.542969 3.699219 L 6.730469 3.699219 L 5.425781 0.832031 L 5.425781 3.699219 L 3.582031 3.699219 L 3.203125 2.917969 L 1.355469 2.917969 L 1.03125 3.75 L 0 3.75 L 1.628906 0.0507812 L 2.984375 0.0507812 L 4.503906 3.542969 L 4.503906 0.0507812 L 5.96875 0.0507812 L 7.164062 2.550781 L 8.25 0.0507812 L 9.769531 0.0507812 Z M 13.460938 0.832031 L 11.34375 0.832031 L 11.34375 1.511719 L 13.40625 1.511719 L 13.40625 2.238281 L 11.34375 2.238281 L 11.34375 2.96875 L 13.460938 2.96875 L 13.460938 3.75 L 10.421875 3.75 L 10.421875 0.0507812 L 13.460938 0.0507812 Z M 17.53125 2.34375 C 17.640625 2.550781 17.695312 2.707031 17.695312 3.019531 L 17.695312 3.75 L 16.769531 3.75 L 16.769531 3.28125 C 16.769531 3.074219 16.769531 2.761719 16.609375 2.550781 C 16.445312 2.394531 16.28125 2.394531 15.957031 2.394531 L 14.980469 2.394531 L 14.980469 3.75 L 14.058594 3.75 L 14.058594 0.0507812 L 16.121094 0.0507812 C 16.609375 0.0507812 16.933594 0.0507812 17.207031 0.207031 C 17.476562 0.363281 17.640625 0.625 17.640625 1.042969 C 17.640625 1.613281 17.257812 1.925781 16.988281 2.03125 C 17.257812 2.082031 17.421875 2.238281 17.53125 2.34375 Z M 19.160156 3.699219 L 18.238281 3.699219 L 18.238281 0 L 19.160156 0 Z M 29.851562 3.699219 L 28.550781 3.699219 L 26.8125 0.9375 L 26.8125 3.699219 L 24.96875 3.699219 L 24.640625 2.917969 L 22.742188 2.917969 L 22.414062 3.75 L 21.382812 3.75 C 20.949219 3.75 20.40625 3.644531 20.082031 3.332031 C 19.757812 3.019531 19.59375 2.605469 19.59375 1.925781 C 19.59375 1.40625 19.703125 0.886719 20.082031 0.46875 C 20.351562 0.15625 20.84375 0.0507812 21.4375 0.0507812 L 22.308594 0.0507812 L 22.308594 0.832031 L 21.4375 0.832031 C 21.113281 0.832031 20.949219 0.886719 20.734375 1.042969 C 20.570312 1.199219 20.460938 1.511719 20.460938 1.875 C 20.460938 2.292969 20.515625 2.550781 20.734375 2.761719 C 20.894531 2.917969 21.113281 2.96875 21.382812 2.96875 L 21.765625 2.96875 L 23.011719 0.105469 L 24.371094 0.105469 L 25.890625 3.59375 L 25.890625 0.105469 L 27.246094 0.105469 L 28.820312 2.65625 L 28.820312 0.105469 L 29.742188 0.105469 L 29.742188 3.699219 Z M 13.539062 8.75 L 12.457031 8.75 L 12.457031 10 L 10.71875 10 L 9.632812 8.800781 L 8.492188 10 L 4.910156 10 L 4.910156 6.300781 L 8.546875 6.300781 L 9.632812 7.5 L 10.773438 6.300781 L 13.648438 6.300781 C 14.355469 6.300781 15.167969 6.511719 15.167969 7.5 C 15.113281 8.542969 14.355469 8.75 13.539062 8.75 Z M 18.96875 8.542969 C 19.078125 8.699219 19.132812 8.90625 19.132812 9.21875 L 19.132812 9.949219 L 18.207031 9.949219 L 18.207031 9.480469 C 18.207031 9.269531 18.207031 8.90625 18.046875 8.75 C 17.9375 8.59375 17.71875 8.59375 17.394531 8.59375 L 16.417969 8.59375 L 16.417969 9.949219 L 15.496094 9.949219 L 15.496094 6.25 L 17.558594 6.25 C 17.992188 6.25 18.371094 6.25 18.644531 6.40625 C 18.914062 6.5625 19.132812 6.824219 19.132812 7.238281 C 19.132812 7.8125 18.75 8.125 18.480469 8.230469 C 18.75 8.332031 18.914062 8.4375 18.96875 8.542969 Z M 22.714844 7.03125 L 20.597656 7.03125 L 20.597656 7.707031 L 22.660156 7.707031 L 22.660156 8.4375 L 20.597656 8.4375 L 20.597656 9.167969 L 22.714844 9.167969 L 22.714844 9.949219 L 19.675781 9.949219 L 19.675781 6.25 L 22.714844 6.25 Z M 24.992188 9.949219 L 23.257812 9.949219 L 23.257812 9.167969 L 24.992188 9.167969 C 25.15625 9.167969 25.265625 9.167969 25.371094 9.0625 C 25.425781 9.011719 25.480469 8.90625 25.480469 8.800781 C 25.480469 8.699219 25.425781 8.59375 25.371094 8.542969 C 25.320312 8.488281 25.210938 8.4375 25.046875 8.4375 C 24.179688 8.386719 23.148438 8.4375 23.148438 7.292969 C 23.148438 6.769531 23.472656 6.199219 24.449219 6.199219 L 26.242188 6.199219 L 26.242188 7.082031 L 24.558594 7.082031 C 24.394531 7.082031 24.289062 7.082031 24.179688 7.136719 C 24.070312 7.1875 24.070312 7.292969 24.070312 7.394531 C 24.070312 7.550781 24.179688 7.605469 24.289062 7.65625 C 24.394531 7.707031 24.503906 7.707031 24.613281 7.707031 L 25.101562 7.707031 C 25.589844 7.707031 25.914062 7.8125 26.132812 8.019531 C 26.296875 8.175781 26.402344 8.4375 26.402344 8.800781 C 26.402344 9.582031 25.914062 9.949219 24.992188 9.949219 Z M 28.589844 9.949219 L 26.851562 9.949219 L 26.851562 9.167969 L 28.589844 9.167969 C 28.75 9.167969 28.859375 9.167969 28.96875 9.0625 C 29.023438 9.011719 29.078125 8.90625 29.078125 8.800781 C 29.078125 8.699219 29.023438 8.59375 28.96875 8.542969 C 28.914062 8.488281 28.804688 8.4375 28.644531 8.4375 C 27.773438 8.386719 26.742188 8.4375 26.742188 7.292969 C 26.742188 6.769531 27.070312 6.199219 28.046875 6.199219 L 29.835938 6.199219 L 29.835938 7.082031 L 28.15625 7.082031 C 27.992188 7.082031 27.882812 7.082031 27.773438 7.136719 C 27.667969 7.1875 27.667969 7.292969 27.667969 7.394531 C 27.667969 7.550781 27.773438 7.605469 27.882812 7.65625 C 27.992188 7.707031 28.101562 7.707031 28.207031 7.707031 L 28.699219 7.707031 C 29.1875 7.707031 29.511719 7.8125 29.730469 8.019531 C 29.890625 8.175781 30 8.4375 30 8.800781 C 30 9.582031 29.511719 9.949219 28.589844 9.949219 Z M 1.683594 2.136719 L 2.875 2.136719 L 2.28125 0.675781 Z M 16.5 0.886719 C 16.390625 0.832031 16.226562 0.832031 16.066406 0.832031 L 14.980469 0.832031 L 14.980469 1.667969 L 16.066406 1.667969 C 16.226562 1.667969 16.390625 1.667969 16.5 1.613281 C 16.609375 1.5625 16.664062 1.40625 16.664062 1.25 C 16.71875 1.042969 16.609375 0.9375 16.5 0.886719 Z M 23.066406 2.136719 L 24.316406 2.136719 L 23.71875 0.675781 Z M 5.726562 7.03125 L 5.726562 7.707031 L 7.734375 7.707031 L 7.734375 8.4375 L 5.726562 8.4375 L 5.726562 9.21875 L 7.949219 9.21875 L 8.980469 8.125 L 8.003906 7.03125 Z M 11.53125 9.636719 L 11.53125 6.667969 L 10.121094 8.125 Z M 13.988281 7.136719 C 13.878906 7.082031 13.71875 7.082031 13.554688 7.082031 L 12.46875 7.082031 L 12.46875 7.917969 L 13.554688 7.917969 C 13.71875 7.917969 13.878906 7.917969 13.988281 7.863281 C 14.097656 7.8125 14.152344 7.65625 14.152344 7.5 C 14.207031 7.292969 14.097656 7.1875 13.988281 7.136719 Z M 17.992188 7.136719 C 17.882812 7.082031 17.71875 7.082031 17.558594 7.082031 L 16.472656 7.082031 L 16.472656 7.917969 L 17.558594 7.917969 C 17.71875 7.917969 17.882812 7.917969 17.992188 7.863281 C 18.101562 7.8125 18.15625 7.65625 18.15625 7.5 C 18.207031 7.292969 18.101562 7.1875 17.992188 7.136719 Z M 17.992188 7.136719 "/>
</g>
</svg>
