<?xml version="1.0" encoding="UTF-8"?>
<svg xmlns="http://www.w3.org/2000/svg" xmlns:xlink="http://www.w3.org/1999/xlink" width="33pt" height="33pt" viewBox="0 0 33 33" version="1.1">
<defs>
<linearGradient id="linear0" gradientUnits="userSpaceOnUse" x1="0.5" y1="1" x2="0.5" y2="0.000000000000000031" gradientTransform="matrix(32.9375,0,0,33,0,0)">
<stop offset="0" style="stop-color:rgb(100%,65.098039%,4.313725%);stop-opacity:1;"/>
<stop offset="1" style="stop-color:rgb(100%,84.705882%,21.960784%);stop-opacity:1;"/>
</linearGradient>
</defs>
<g id="surface1">
<path style=" stroke:none;fill-rule:nonzero;fill:url(#linear0);" d="M 27.605469 24.5625 L 27.605469 20.695312 C 27.574219 20.695312 27.546875 20.695312 27.515625 20.695312 C 27.160156 20.695312 26.808594 20.59375 26.507812 20.398438 C 26.316406 20.277344 26.066406 20.277344 25.875 20.398438 C 25.546875 20.613281 25.164062 20.710938 24.777344 20.695312 L 24.777344 24.5625 L 25.738281 23.601562 C 25.988281 23.351562 26.394531 23.351562 26.644531 23.601562 Z M 28.777344 5.992188 C 28.421875 5.992188 28.136719 5.707031 28.136719 5.347656 L 28.136719 1.933594 C 28.136719 1.578125 27.847656 1.289062 27.492188 1.289062 L 1.925781 1.289062 C 1.574219 1.289062 1.285156 1.578125 1.285156 1.933594 L 1.285156 31.066406 C 1.285156 31.421875 1.574219 31.710938 1.925781 31.710938 L 27.492188 31.710938 C 27.847656 31.710938 28.136719 31.421875 28.136719 31.066406 L 28.136719 29.261719 C 28.136719 28.90625 28.421875 28.617188 28.777344 28.617188 C 29.132812 28.617188 29.421875 28.90625 29.421875 29.261719 L 29.421875 31.066406 C 29.421875 32.132812 28.554688 33 27.492188 33 L 1.925781 33 C 0.863281 33 0 32.132812 0 31.066406 L 0 1.933594 C 0 0.867188 0.863281 0 1.925781 0 L 27.492188 0 C 28.554688 0 29.421875 0.867188 29.421875 1.933594 L 29.421875 5.347656 C 29.421875 5.707031 29.132812 5.992188 28.777344 5.992188 Z M 25.695312 3.09375 C 26.050781 3.09375 26.335938 3.382812 26.335938 3.738281 L 26.335938 5.414062 C 26.335938 5.769531 26.050781 6.058594 25.695312 6.058594 C 25.339844 6.058594 25.054688 5.769531 25.054688 5.414062 L 25.054688 4.382812 L 4.367188 4.382812 L 4.367188 17.207031 C 4.367188 17.566406 4.082031 17.851562 3.726562 17.851562 C 3.371094 17.851562 3.082031 17.566406 3.082031 17.207031 L 3.082031 3.738281 C 3.082031 3.382812 3.371094 3.09375 3.726562 3.09375 Z M 4.179688 19.136719 C 4.300781 19.257812 4.367188 19.425781 4.367188 19.59375 C 4.367188 19.761719 4.300781 19.929688 4.179688 20.050781 C 4.058594 20.167969 3.894531 20.238281 3.726562 20.238281 C 3.554688 20.238281 3.390625 20.167969 3.269531 20.050781 C 3.152344 19.929688 3.082031 19.761719 3.082031 19.59375 C 3.082031 19.425781 3.152344 19.257812 3.269531 19.136719 C 3.390625 19.019531 3.554688 18.949219 3.726562 18.949219 C 3.894531 18.949219 4.058594 19.019531 4.179688 19.136719 Z M 25.695312 27.199219 C 26.050781 27.199219 26.335938 27.488281 26.335938 27.84375 L 26.335938 29.261719 C 26.335938 29.617188 26.050781 29.90625 25.695312 29.90625 L 3.726562 29.90625 C 3.371094 29.90625 3.082031 29.617188 3.082031 29.261719 L 3.082031 22.074219 C 3.082031 21.71875 3.371094 21.429688 3.726562 21.429688 C 4.082031 21.429688 4.367188 21.71875 4.367188 22.074219 L 4.367188 28.617188 L 25.054688 28.617188 L 25.054688 27.84375 C 25.054688 27.488281 25.339844 27.199219 25.695312 27.199219 Z M 32.703125 13.546875 C 32.582031 13.742188 32.582031 13.988281 32.703125 14.179688 C 32.988281 14.625 33.074219 15.167969 32.9375 15.679688 C 32.800781 16.1875 32.457031 16.617188 31.988281 16.859375 C 31.789062 16.964844 31.664062 17.179688 31.675781 17.40625 C 31.699219 17.933594 31.5 18.445312 31.128906 18.820312 C 30.757812 19.191406 30.246094 19.390625 29.722656 19.367188 C 29.492188 19.355469 29.28125 19.480469 29.175781 19.683594 C 29.097656 19.832031 29 19.96875 28.890625 20.089844 L 28.890625 26.109375 C 28.890625 26.371094 28.734375 26.605469 28.492188 26.707031 C 28.414062 26.738281 28.328125 26.753906 28.246094 26.753906 C 28.082031 26.753906 27.917969 26.691406 27.792969 26.566406 L 26.191406 24.96875 L 24.589844 26.566406 C 24.40625 26.75 24.128906 26.804688 23.890625 26.707031 C 23.648438 26.605469 23.492188 26.371094 23.492188 26.109375 L 23.492188 20.089844 C 23.382812 19.96875 23.285156 19.832031 23.207031 19.683594 C 23.101562 19.480469 22.886719 19.355469 22.660156 19.367188 C 22.136719 19.390625 21.625 19.191406 21.253906 18.820312 C 20.882812 18.445312 20.683594 17.933594 20.707031 17.40625 C 20.710938 17.324219 20.699219 17.246094 20.667969 17.171875 L 7.613281 17.171875 C 7.257812 17.171875 6.96875 16.882812 6.96875 16.527344 C 6.96875 16.171875 7.257812 15.882812 7.613281 15.882812 L 19.511719 15.882812 C 19.488281 15.816406 19.464844 15.75 19.445312 15.679688 C 19.308594 15.167969 19.394531 14.625 19.675781 14.179688 C 19.699219 14.148438 19.714844 14.113281 19.726562 14.078125 L 7.613281 14.078125 C 7.257812 14.078125 6.96875 13.789062 6.96875 13.433594 C 6.96875 13.078125 7.257812 12.789062 7.613281 12.789062 L 19.398438 12.789062 C 19.367188 12.542969 19.382812 12.292969 19.445312 12.050781 C 19.582031 11.542969 19.925781 11.113281 20.394531 10.871094 C 20.59375 10.765625 20.71875 10.550781 20.707031 10.324219 C 20.683594 9.796875 20.882812 9.28125 21.253906 8.910156 C 21.625 8.539062 22.136719 8.339844 22.660156 8.363281 C 22.886719 8.375 23.101562 8.25 23.207031 8.046875 C 23.449219 7.578125 23.878906 7.234375 24.382812 7.097656 C 24.890625 6.960938 25.433594 7.046875 25.875 7.328125 C 26.066406 7.453125 26.316406 7.453125 26.507812 7.328125 C 26.949219 7.046875 27.492188 6.960938 28 7.097656 C 28.503906 7.234375 28.933594 7.578125 29.175781 8.046875 C 29.28125 8.25 29.492188 8.375 29.722656 8.363281 C 30.246094 8.339844 30.757812 8.539062 31.128906 8.910156 C 31.5 9.28125 31.699219 9.796875 31.675781 10.324219 C 31.664062 10.550781 31.789062 10.765625 31.988281 10.871094 C 32.457031 11.113281 32.800781 11.542969 32.9375 12.050781 C 33.074219 12.558594 32.988281 13.105469 32.703125 13.546875 Z M 15.574219 18.933594 C 15.929688 18.933594 16.214844 19.222656 16.214844 19.578125 C 16.214844 19.933594 15.929688 20.222656 15.574219 20.222656 L 7.652344 20.222656 C 7.296875 20.222656 7.007812 19.933594 7.007812 19.578125 C 7.007812 19.222656 7.296875 18.933594 7.652344 18.933594 Z M 31.695312 15.34375 C 31.738281 15.183594 31.714844 15.015625 31.625 14.875 C 31.230469 14.261719 31.230469 13.46875 31.625 12.851562 C 31.714844 12.710938 31.738281 12.546875 31.695312 12.386719 C 31.652344 12.222656 31.546875 12.09375 31.398438 12.015625 C 30.753906 11.679688 30.355469 10.992188 30.390625 10.261719 C 30.398438 10.097656 30.339844 9.941406 30.21875 9.820312 C 30.101562 9.703125 29.945312 9.644531 29.78125 9.652344 C 29.054688 9.683594 28.367188 9.289062 28.035156 8.636719 C 27.957031 8.492188 27.828125 8.382812 27.664062 8.339844 C 27.503906 8.296875 27.339844 8.324219 27.199219 8.414062 C 26.585938 8.808594 25.796875 8.808594 25.183594 8.414062 C 25.042969 8.324219 24.875 8.296875 24.714844 8.339844 C 24.554688 8.382812 24.425781 8.488281 24.347656 8.636719 C 24.015625 9.289062 23.328125 9.683594 22.601562 9.652344 C 22.4375 9.644531 22.277344 9.703125 22.160156 9.820312 C 22.042969 9.941406 21.984375 10.097656 21.992188 10.261719 C 22.023438 10.992188 21.628906 11.679688 20.980469 12.015625 C 20.835938 12.09375 20.730469 12.222656 20.6875 12.386719 C 20.644531 12.546875 20.667969 12.710938 20.757812 12.851562 C 21.152344 13.46875 21.152344 14.261719 20.757812 14.875 C 20.667969 15.015625 20.644531 15.183594 20.6875 15.34375 C 20.730469 15.507812 20.835938 15.636719 20.980469 15.714844 C 21.160156 15.804688 21.316406 15.921875 21.453125 16.0625 C 21.460938 16.070312 21.472656 16.082031 21.484375 16.09375 C 21.824219 16.457031 22.015625 16.953125 21.992188 17.464844 C 21.984375 17.632812 22.042969 17.789062 22.160156 17.90625 C 22.277344 18.027344 22.4375 18.085938 22.601562 18.078125 C 23.328125 18.042969 24.015625 18.441406 24.347656 19.089844 C 24.425781 19.238281 24.554688 19.34375 24.714844 19.386719 C 24.875 19.429688 25.042969 19.40625 25.183594 19.316406 C 25.488281 19.117188 25.839844 19.019531 26.191406 19.019531 C 26.542969 19.019531 26.894531 19.117188 27.199219 19.316406 C 27.339844 19.40625 27.503906 19.429688 27.664062 19.386719 C 27.828125 19.34375 27.957031 19.238281 28.035156 19.089844 C 28.367188 18.441406 29.054688 18.046875 29.78125 18.078125 C 29.945312 18.085938 30.101562 18.027344 30.21875 17.90625 C 30.339844 17.789062 30.398438 17.632812 30.390625 17.464844 C 30.355469 16.738281 30.753906 16.050781 31.398438 15.714844 C 31.546875 15.636719 31.652344 15.503906 31.695312 15.34375 Z M 28.59375 12.085938 C 28.847656 12.335938 28.847656 12.742188 28.59375 12.996094 L 26.007812 15.589844 C 25.882812 15.714844 25.71875 15.78125 25.554688 15.78125 C 25.390625 15.78125 25.226562 15.714844 25.101562 15.589844 L 23.796875 14.285156 C 23.546875 14.03125 23.546875 13.625 23.796875 13.371094 C 24.046875 13.121094 24.457031 13.121094 24.707031 13.371094 L 25.554688 14.222656 L 27.6875 12.085938 C 27.9375 11.832031 28.34375 11.832031 28.59375 12.085938 Z M 28.59375 12.085938 "/>
</g>
</svg>
