<?xml version="1.0" encoding="UTF-8"?>
<svg xmlns="http://www.w3.org/2000/svg" xmlns:xlink="http://www.w3.org/1999/xlink" width="41pt" height="39pt" viewBox="0 0 41 39" version="1.1">
<g id="surface1">
<path style=" stroke:none;fill-rule:nonzero;fill:rgb(94.901961%,94.901961%,98.039216%);fill-opacity:1;" d="M 39.738281 35.824219 L 5.242188 35.824219 C 4.105469 35.824219 3.1875 34.910156 3.183594 33.777344 L 3.183594 21.835938 L 1.195312 21.835938 L 1.195312 35.757812 C 1.195312 36.886719 2.117188 37.804688 3.25 37.804688 L 37.75 37.804688 C 38.859375 37.804688 39.769531 36.925781 39.800781 35.820312 C 39.78125 35.820312 39.761719 35.824219 39.738281 35.824219 Z M 39.738281 35.824219 "/>
<path style=" stroke:none;fill-rule:nonzero;fill:rgb(85.098039%,86.27451%,92.54902%);fill-opacity:1;" d="M 41 35.757812 C 41 37.542969 39.542969 38.992188 37.75 38.992188 L 3.25 38.992188 C 1.457031 38.992188 0 37.542969 0 35.757812 L 0 21.242188 C 0 21.128906 0.03125 21.019531 0.0898438 20.925781 L 4.003906 14.691406 C 4.546875 13.804688 5.382812 13.128906 6.367188 12.777344 L 6.769531 13.898438 C 6.039062 14.15625 5.421875 14.65625 5.019531 15.316406 L 1.671875 20.648438 L 11.542969 20.648438 C 13.15625 20.648438 14.460938 21.949219 14.460938 23.550781 C 14.464844 24.496094 15.234375 25.265625 16.1875 25.265625 L 24.8125 25.265625 C 25.765625 25.265625 26.535156 24.496094 26.539062 23.550781 C 26.539062 21.949219 27.84375 20.648438 29.457031 20.648438 L 39.328125 20.648438 L 35.984375 15.320312 L 36.996094 14.691406 L 40.910156 20.925781 C 40.96875 21.019531 41 21.128906 41 21.242188 Z M 1.195312 35.757812 C 1.195312 36.886719 2.117188 37.804688 3.25 37.804688 L 37.75 37.804688 C 38.882812 37.804688 39.804688 36.886719 39.804688 35.757812 L 39.804688 21.835938 L 29.457031 21.835938 C 28.503906 21.835938 27.730469 22.605469 27.730469 23.550781 C 27.730469 25.152344 26.425781 26.453125 24.8125 26.453125 L 16.1875 26.453125 C 14.574219 26.453125 13.269531 25.152344 13.269531 23.550781 C 13.269531 22.605469 12.496094 21.835938 11.542969 21.835938 L 1.195312 21.835938 Z M 27.132812 28.566406 C 27.464844 28.566406 27.730469 28.832031 27.730469 29.160156 L 27.730469 31.800781 C 27.730469 32.128906 27.464844 32.394531 27.132812 32.394531 L 13.867188 32.394531 C 13.535156 32.394531 13.269531 32.128906 13.269531 31.800781 L 13.269531 29.160156 C 13.269531 28.832031 13.535156 28.566406 13.867188 28.566406 Z M 26.539062 31.207031 L 26.539062 29.753906 L 14.460938 29.753906 L 14.460938 31.207031 Z M 26.539062 31.207031 "/>
<path style=" stroke:none;fill-rule:nonzero;fill:rgb(20.784314%,57.254902%,100%);fill-opacity:1;" d="M 33.898438 5.242188 C 35.621094 5.242188 37.015625 6.632812 37.019531 8.347656 L 37.019531 20.703125 L 35.824219 20.703125 L 35.824219 8.347656 C 35.824219 7.289062 34.960938 6.429688 33.898438 6.429688 L 24.667969 6.429688 C 23.503906 6.433594 22.433594 5.789062 21.898438 4.757812 L 20.597656 2.269531 C 20.265625 1.632812 19.605469 1.234375 18.886719 1.238281 L 13.074219 1.238281 C 12.007812 1.238281 11.148438 2.097656 11.144531 3.152344 L 11.144531 4.007812 L 14.90625 4.007812 C 16.070312 4.007812 17.140625 4.652344 17.675781 5.679688 L 18.976562 8.167969 C 19.308594 8.804688 19.96875 9.203125 20.6875 9.203125 L 29.917969 9.203125 C 31.640625 9.203125 33.035156 10.59375 33.039062 12.304688 L 33.039062 20.648438 L 31.84375 20.648438 L 31.84375 12.304688 C 31.84375 11.246094 30.980469 10.390625 29.917969 10.390625 L 20.6875 10.390625 C 19.523438 10.390625 18.453125 9.746094 17.917969 8.71875 L 16.617188 6.230469 C 16.285156 5.59375 15.625 5.195312 14.90625 5.195312 L 9.09375 5.195312 C 8.027344 5.199219 7.167969 6.054688 7.164062 7.113281 L 7.164062 20.746094 L 5.972656 20.746094 L 5.972656 7.113281 C 5.972656 5.398438 7.367188 4.011719 9.09375 4.007812 L 9.953125 4.007812 L 9.953125 3.152344 C 9.953125 1.441406 11.351562 0.0507812 13.074219 0.0507812 L 18.886719 0.0507812 C 20.050781 0.046875 21.121094 0.691406 21.65625 1.722656 L 22.957031 4.210938 C 23.289062 4.84375 23.949219 5.242188 24.667969 5.242188 Z M 25.753906 14.414062 C 26.082031 14.414062 26.351562 14.679688 26.351562 15.007812 C 26.351562 15.335938 26.082031 15.601562 25.753906 15.601562 L 24.480469 15.601562 C 24.152344 15.601562 23.882812 15.335938 23.882812 15.007812 C 23.882812 14.679688 24.152344 14.414062 24.480469 14.414062 Z M 13.257812 15.601562 C 12.925781 15.601562 12.660156 15.335938 12.660156 15.007812 C 12.660156 14.679688 12.925781 14.414062 13.257812 14.414062 L 21.554688 14.414062 C 21.882812 14.414062 22.148438 14.679688 22.148438 15.007812 C 22.148438 15.335938 21.882812 15.601562 21.554688 15.601562 Z M 25.753906 17.382812 C 26.082031 17.382812 26.351562 17.648438 26.351562 17.976562 C 26.351562 18.304688 26.082031 18.570312 25.753906 18.570312 L 17.121094 18.570312 C 16.789062 18.570312 16.523438 18.304688 16.523438 17.976562 C 16.523438 17.648438 16.789062 17.382812 17.121094 17.382812 Z M 13.257812 18.570312 C 12.925781 18.570312 12.660156 18.304688 12.660156 17.976562 C 12.660156 17.648438 12.925781 17.382812 13.257812 17.382812 L 14.585938 17.382812 C 14.917969 17.382812 15.183594 17.648438 15.183594 17.976562 C 15.183594 18.304688 14.917969 18.570312 14.585938 18.570312 Z M 13.257812 18.570312 "/>
</g>
</svg>
