<?xml version="1.0" encoding="UTF-8"?>
<svg width="35px" height="20px" viewBox="0 0 35 20" version="1.1" xmlns="http://www.w3.org/2000/svg" xmlns:xlink="http://www.w3.org/1999/xlink">
    <!-- Generator: Sketch 53 (72520) - https://sketchapp.com -->
    <title>mastercard</title>
    <desc>Created with Sketch.</desc>
    <g id="Page-1" stroke="none" stroke-width="1" fill="none" fill-rule="evenodd">
        <g id="Home-Page" transform="translate(-1510.000000, -6992.000000)">
            <g id="Footer" transform="translate(0.000000, 6791.000000)">
                <g id="Payment" transform="translate(1349.000000, 190.000000)">
                    <g id="Payment/mastercard" transform="translate(161.000000, 11.000000)">
                        <g id="mastercard">
                            <path d="M35,10 C35,15.4736842 30.4666667,19.9473684 24.8,19.9473684 C19.1873016,19.9473684 14.6,15.4736842 14.6,10 L14.6,10 C14.6,4.52631579 19.1333333,0.0526315789 24.7460317,0.0526315789 C30.4666667,0.0526315789 35,4.52631579 35,10 L35,10 Z" id="Shape" fill="#FFB600" fill-rule="nonzero"></path>
                            <path d="M20.4,10.0131579 C20.4,15.4868421 15.8666667,19.9605263 10.2,19.9605263 C4.58730159,19.9605263 0,15.4868421 0,10.0131579 L0,10.0131579 C0,4.53947368 4.53333333,0.0657894737 10.1460317,0.0657894737 C15.8666667,0.0657894737 20.4,4.53947368 20.4,10.0131579 L20.4,10.0131579 Z" id="Shape" fill="#E92039" fill-rule="nonzero"></path>
                            <path d="M14.4208754,12.85 L14.5774411,12 C14.5252525,12 14.4208754,12.05 14.3164983,12.05 C13.9511785,12.05 13.8989899,11.85 13.9511785,11.75 L14.2643098,10 L14.8383838,10 L14.9949495,9.05 L14.473064,9.05 L14.5774411,8.45 L13.53367,8.45 C13.53367,8.45 12.9074074,11.75 12.9074074,12.15 C12.9074074,12.75 13.2727273,13 13.7424242,13 C14.0555556,13 14.3164983,12.9 14.4208754,12.85 Z M14.7861953,11.25 C14.7861953,12.65 15.7777778,13 16.6127946,13 C17.3956229,13 17.7087542,12.85 17.7087542,12.85 L17.9175084,11.9 C17.9175084,11.9 17.3434343,12.15 16.8215488,12.15 C15.6734007,12.15 15.8821549,11.35 15.8821549,11.35 L18.0218855,11.35 C18.0218855,11.35 18.1784512,10.7 18.1784512,10.45 C18.1784512,9.8 17.8131313,9 16.6649832,9 C15.5690236,8.9 14.7861953,10 14.7861953,11.25 Z M16.6127946,9.8 C17.1868687,9.8 17.0824916,10.45 17.0824916,10.5 L15.9343434,10.5 C15.9343434,10.45 16.0387205,9.8 16.6127946,9.8 Z M23.2407407,12.85 C23.2407407,12.85 22.6666667,13 22.2491582,13 C20.996633,13 20.3703704,12.15 20.3703704,10.9 C20.3703704,9 21.5707071,8 22.7710438,8 C23.3451178,8 23.9713805,8.25 23.9713805,8.25 L23.8148148,9.3 C23.8148148,9.3 23.3973064,9 22.8754209,9 C22.1447811,9 21.5185185,9.65 21.5185185,10.85 C21.5185185,11.45 21.8316498,12 22.5622896,12 C22.9276094,12 23.4494949,11.75 23.4494949,11.75 L23.2407407,12.85 Z M8.68013468,8.9 C7.94949495,8.9 7.42760943,9.1 7.42760943,9.1 L7.27104377,9.95 C7.27104377,9.95 7.74074074,9.75 8.41919192,9.75 C8.78451178,9.75 9.0976431,9.8 9.0976431,10.1 C9.0976431,10.3 9.04545455,10.35 9.04545455,10.35 C9.04545455,10.35 8.73232323,10.35 8.57575758,10.35 C7.68855219,10.35 6.6969697,10.7 6.6969697,11.85 C6.6969697,12.75 7.32323232,12.95 7.68855219,12.95 C8.41919192,12.95 8.73232323,12.5 8.78451178,12.5 L8.73232323,12.9 L9.67171717,12.9 L10.0892256,10.15 C10.0892256,8.95 9.04545455,8.9 8.68013468,8.9 Z M8.88888889,11.15 C8.88888889,11.3 8.78451178,12.1 8.15824916,12.1 C7.84511785,12.1 7.74074074,11.85 7.74074074,11.7 C7.74074074,11.45 7.8973064,11.1 8.68013468,11.1 C8.83670034,11.15 8.88888889,11.15 8.88888889,11.15 Z M11.0808081,12.95 C10.1936027,12.95 9.93265993,12.85 9.88047138,12.75 L10.037037,11.85 C10.037037,11.85 10.506734,12 10.976431,12 C11.2373737,12 11.6026936,11.95 11.6026936,11.65 C11.6026936,11.2 10.2979798,11.3 10.2979798,10.15 C10.2979798,9.15 11.0808081,8.85 11.8636364,8.85 C12.489899,8.85 12.8552189,8.95 12.8552189,8.95 L12.6986532,9.85 C12.6986532,9.85 12.1245791,9.8 11.9680135,9.8 C11.6026936,9.8 11.3939394,9.9 11.3939394,10.15 C11.3939394,10.65 12.6464646,10.4 12.6464646,11.65 C12.6464646,13 11.3417508,12.95 11.0808081,12.95 Z M31.9040404,8.1 L31.6952862,9.45 C31.6952862,9.45 31.2777778,8.95 30.7037037,8.95 C29.7643098,8.95 28.9292929,10.05 28.9292929,11.35 C28.9292929,12.15 29.3468013,13 30.2340067,13 C30.8602694,13 31.2255892,12.6 31.2255892,12.6 L31.1734007,12.95 L32.2171717,12.95 L33,8.15 L31.9040404,8.1 Z M31.4343434,10.75 C31.4343434,11.3 31.1734007,12 30.5993266,12 C30.2340067,12 30.0252525,11.7 30.0252525,11.2 C30.0252525,10.4 30.3905724,9.9 30.8602694,9.9 C31.2255892,9.9 31.4343434,10.15 31.4343434,10.75 Z M2.99158249,12.9 L2,12.9 L2.83501684,8.1 L4.34848485,8.1 L4.4006734,11.05 L5.44444444,8.1 L7.16666667,8.1 L6.33164983,12.9 L5.23569024,12.9 L5.80976431,9.3 L4.45286195,12.9 L3.72222222,12.9 L3.61784512,9.3 L2.99158249,12.9 Z M19.1700337,12.9 L19.1700337,12.95 L18.0218855,12.95 L18.7003367,9.05 L19.6919192,9.05 L19.5875421,9.6 C19.5875421,9.6 19.952862,9 20.4225589,9 C20.5791246,9 20.6313131,9 20.6313131,9 C20.526936,9.25 20.3703704,9.5 20.2659933,10.15 C19.5353535,9.9 19.483165,11.25 19.1700337,12.9 Z M27.9377104,12.9 L27.9377104,12.95 L26.7895623,12.95 L27.4680135,9.05 L28.459596,9.05 L28.3552189,9.6 C28.3552189,9.6 28.7205387,9 29.1902357,9 C29.3468013,9 29.3989899,9 29.3989899,9 C29.2946128,9.25 29.1380471,9.5 29.03367,10.15 C28.3030303,9.9 28.2508418,11.25 27.9377104,12.9 Z M25.6414141,8.9 C24.9107744,8.9 24.3888889,9.1 24.3888889,9.1 L24.2323232,9.95 C24.2323232,9.95 24.7020202,9.75 25.3804714,9.75 C25.7457912,9.75 26.0589226,9.8 26.0589226,10.1 C26.0589226,10.3 26.006734,10.35 26.006734,10.35 C26.006734,10.35 25.6936027,10.35 25.537037,10.35 C24.6498316,10.35 23.6582492,10.7 23.6582492,11.85 C23.6582492,12.75 24.2845118,12.95 24.6498316,12.95 C25.3804714,12.95 25.6936027,12.5 25.7457912,12.5 L25.6936027,12.9 L26.6329966,12.9 L27.0505051,10.15 C27.1026936,8.95 26.006734,8.9 25.6414141,8.9 Z M25.9023569,11.15 C25.9023569,11.3 25.7979798,12.1 25.1717172,12.1 C24.8585859,12.1 24.7542088,11.85 24.7542088,11.7 C24.7542088,11.45 24.9107744,11.1 25.6936027,11.1 C25.8501684,11.15 25.8501684,11.15 25.9023569,11.15 Z" id="Shape" fill="#FFFFFF" fill-rule="nonzero"></path>
                        </g>
                    </g>
                </g>
            </g>
        </g>
    </g>
</svg>