<?xml version="1.0" encoding="UTF-8"?>
<svg width="54px" height="41px" viewBox="0 0 54 41" version="1.1" xmlns="http://www.w3.org/2000/svg" xmlns:xlink="http://www.w3.org/1999/xlink">
    <!-- Generator: Sketch 53 (72520) - https://sketchapp.com -->
    <title>4</title>
    <desc>Created with Sketch.</desc>
    <g id="Page-1" stroke="none" stroke-width="1" fill="none" fill-rule="evenodd">
        <g id="Home-Page" transform="translate(-376.000000, -5975.000000)" fill-rule="nonzero">
            <g id="HP-text" transform="translate(359.000000, 3311.000000)">
                <g id="Text-5" transform="translate(0.000000, 2658.000000)">
                    <g id="4" transform="translate(17.000000, 6.000000)">
                        <path d="M43.6197571,5.05075676 L43.6197571,16.0764324 L42.0893927,16.0764324 L42.0893927,5.05075676 C42.0869825,3.12662478 40.548548,1.5675883 38.6504453,1.56575676 L5.02287449,1.56575676 C3.12514889,1.56807696 1.58730906,3.12700628 1.58502024,5.05075676 L1.58502024,28.0495405 C1.58730906,29.973291 3.12514889,31.5322203 5.02287449,31.5345405 L6.73360324,31.5345405 C7.80597312,31.5227484 8.7315077,32.294086 8.92748988,33.3629189 C9.52870445,36.8168919 11.3148583,38.407027 12.3565992,39.0574865 C12.3598785,39.0131622 12.364251,38.9688378 12.3686235,38.9234054 C12.4779352,37.7377297 12.642996,35.9448108 13.4464372,34.4233784 C14.458664,32.5063514 16.1825101,31.5345405 18.5709717,31.5345405 L27.018583,31.5345405 L27.018583,33.0858919 L18.5709717,33.0858919 C14.7625506,33.0858919 14.1711741,36.0412162 13.8924291,39.0674595 C13.8681015,39.4885033 13.8103437,39.9068753 13.7197166,40.3185135 C13.5754251,40.8426486 13.1972065,40.9534595 13.0419838,40.9767297 C13.0033033,40.9829448 12.9641824,40.9859098 12.9250202,40.9855946 C12.7892822,40.9856497 12.6558868,40.9497425 12.5380567,40.8814324 C11.8012955,40.5955405 8.35360324,38.9865676 7.42008097,33.6332973 C7.34926241,33.3082557 7.06190701,33.0791152 6.73360324,33.0858919 L5.02287449,33.0858919 C2.28025179,33.0828384 0.0576680892,30.8297748 0.0546558704,28.0495405 L0.0546558704,5.05075676 C0.0576680892,2.27052251 2.28025179,0.0174589329 5.02287449,0.0144054054 L38.6504453,0.0144054054 C41.3931957,0.0175795507 43.6160225,2.27039383 43.6197571,5.05075676 Z M37.5998502,20.5530784 L25.3337611,20.5530784 C24.9111627,20.5530784 24.5685789,20.2057965 24.5685789,19.7774027 C24.5685789,19.3490089 24.9111627,19.001727 25.3337611,19.001727 L37.5998502,19.001727 C38.0224487,19.001727 38.3650324,19.3490089 38.3650324,19.7774027 C38.3650324,20.2057965 38.0224487,20.5530784 37.5998502,20.5530784 Z M23.554166,19.7774027 C23.554166,20.2057965 23.2115823,20.5530784 22.7889838,20.5530784 L12.244664,20.5530784 C11.8220655,20.5530784 11.4794818,20.2057965 11.4794818,19.7774027 C11.4794818,19.3490089 11.8220655,19.001727 12.244664,19.001727 L22.7889838,19.001727 C23.2115823,19.001727 23.554166,19.3490089 23.554166,19.7774027 Z M6.07412551,20.5530784 C5.65152705,20.5530784 5.30894332,20.2057965 5.30894332,19.7774027 C5.30894332,19.3490089 5.65152705,19.001727 6.07412551,19.001727 L9.77913765,19.001727 C10.2017361,19.001727 10.5443198,19.3490089 10.5443198,19.7774027 C10.5443198,20.2057965 10.2017361,20.5530784 9.77913765,20.5530784 L6.07412551,20.5530784 Z M34.0225142,14.4510595 C34.0225142,14.0226656 34.3650979,13.6753838 34.7876964,13.6753838 L37.5998502,13.6753838 C38.0224487,13.6753838 38.3650324,14.0226656 38.3650324,14.4510595 C38.3650324,14.8794533 38.0224487,15.2267351 37.5998502,15.2267351 L34.7876964,15.2267351 C34.3650979,15.2267351 34.0225142,14.8794533 34.0225142,14.4510595 Z M26.1416842,13.6753838 L32.3453441,13.6753838 C32.7679426,13.6753838 33.1105263,14.0226656 33.1105263,14.4510595 C33.1105263,14.8794533 32.7679426,15.2267351 32.3453441,15.2267351 L26.1416842,15.2267351 C25.7190858,15.2267351 25.376502,14.8794533 25.376502,14.4510595 C25.376502,14.0226656 25.7190858,13.6753838 26.1416842,13.6753838 Z M6.07412551,15.2267351 C5.65152705,15.2267351 5.30894332,14.8794533 5.30894332,14.4510595 C5.30894332,14.0226656 5.65152705,13.6753838 6.07412551,13.6753838 L23.6676316,13.6753838 C24.09023,13.6753838 24.4328138,14.0226656 24.4328138,14.4510595 C24.4328138,14.8794533 24.09023,15.2267351 23.6676316,15.2267351 L6.07412551,15.2267351 Z M37.5998502,8.83505676 L35.326166,8.83505676 C34.9035675,8.83505676 34.5609838,8.48777493 34.5609838,8.05938108 C34.5609838,7.63098723 34.9035675,7.28370541 35.326166,7.28370541 L37.5998502,7.28370541 C38.0224487,7.28370541 38.3650324,7.63098723 38.3650324,8.05938108 C38.3650324,8.48777493 38.0224487,8.83505676 37.5998502,8.83505676 Z M33.5955425,8.05938108 C33.5955425,8.48777493 33.2529588,8.83505676 32.8303603,8.83505676 L11.1268421,8.83505676 C10.7042437,8.83505676 10.3616599,8.48777493 10.3616599,8.05938108 C10.3616599,7.63098723 10.7042437,7.28370541 11.1268421,7.28370541 L32.8303603,7.28370541 C33.2529588,7.28370541 33.5955425,7.63098723 33.5955425,8.05938108 Z M6.07412551,8.83505676 C5.65152705,8.83505676 5.30894332,8.48777493 5.30894332,8.05938108 C5.30894332,7.63098723 5.65152705,7.28370541 6.07412551,7.28370541 L8.65268016,7.28370541 C9.07527861,7.28370541 9.41786235,7.63098723 9.41786235,8.05938108 C9.41786235,8.48777493 9.07527861,8.83505676 8.65268016,8.83505676 L6.07412551,8.83505676 Z M21.8178583,25.8794216 C21.3952598,25.8794216 21.0526761,25.5321398 21.0526761,25.1037459 C21.0526761,24.6753521 21.3952598,24.3280703 21.8178583,24.3280703 L24.2151741,24.3280703 C24.6377725,24.3280703 24.9803563,24.6753521 24.9803563,25.1037459 C24.9803563,25.5321398 24.6377725,25.8794216 24.2151741,25.8794216 L21.8178583,25.8794216 Z M6.07412551,25.8794216 C5.65152705,25.8794216 5.30894332,25.5321398 5.30894332,25.1037459 C5.30894332,24.6753521 5.65152705,24.3280703 6.07412551,24.3280703 L19.2472834,24.3280703 C19.6698819,24.3280703 20.0124656,24.6753521 20.0124656,25.1037459 C20.0124656,25.5321398 19.6698819,25.8794216 19.2472834,25.8794216 L6.07412551,25.8794216 Z" id="Combined-Shape" fill="#3592FF"></path>
                        <path d="M53.2091968,29.5141042 C53.6626647,29.9616311 53.9445473,30.5869341 53.9453441,31.2790108 C53.9454253,31.953517 53.6719375,32.5983899 53.1890162,33.0624 C53.7453964,33.5874915 54.020075,34.3509208 53.9278312,35.1158291 C53.8355875,35.8807374 53.3875784,36.5546077 52.7228016,36.9283676 C53.2305794,37.6617158 53.2931906,38.6206989 52.8851837,39.4154891 C52.4771767,40.2102793 51.6664741,40.7085648 50.7826275,40.7077919 L44.7158259,40.7077919 C42.8127085,40.7077919 40.9673077,40.6216919 39.3128745,39.5810676 C37.8982816,38.6910564 36.2664427,38.2195852 34.6015385,38.2198676 L33.8354818,38.2198676 L33.8354818,39.5828405 C33.8354818,39.9500353 33.5418386,40.2477054 33.1796113,40.2477054 L27.0180364,40.2477054 C26.6558092,40.2477054 26.362166,39.9500353 26.362166,39.5828405 L26.362166,23.6003757 C26.362166,23.233181 26.6558092,22.9355108 27.0180364,22.9355108 L33.1793927,22.9355108 C33.54162,22.9355108 33.8352632,23.233181 33.8352632,23.6003757 L33.8352632,25.2260811 L34.7221093,25.2260811 C35.877804,25.2242724 36.9632897,24.6635891 37.6440121,23.7168378 C38.9253532,21.9077598 39.7676367,19.817783 40.1024332,17.6167027 L40.4292753,15.457 C40.4777334,15.1321986 40.7534435,14.8922981 41.0774939,14.892973 L41.0884251,14.892973 C41.6033741,14.8994659 42.1069217,15.0475693 42.545332,15.3214784 L43.2954291,15.7810108 C43.5652527,15.9438771 43.7990249,16.1614276 43.9821255,16.4200568 C44.4073516,17.0274375 44.6354759,17.7539605 44.6348259,18.4987568 L44.6348259,19.096027 C44.635256,20.147368 44.4486249,21.1901683 44.0838947,22.1743514 C43.7584433,23.0542762 43.640889,23.9992584 43.7406559,24.9335405 C43.7772891,25.2799541 44.065959,25.5424593 44.4096437,25.5418919 L51.6799676,25.5418919 C52.2958175,25.5427766 52.8848471,25.7974402 53.311764,26.2473896 C53.7386808,26.697339 53.9667924,27.3039022 53.9437045,27.9277595 C53.9201614,28.5577069 53.6397554,29.1163116 53.2091968,29.5141042 Z M50.0922676,28.8149108 C50.1267957,28.8092477 50.1619336,28.8063594 50.1973725,28.8063784 L51.6454251,28.8063784 C52.155575,28.8132769 52.5851129,28.4211886 52.6316356,27.9061514 C52.6495736,27.6386755 52.5573738,27.3756222 52.3769744,27.1795831 C52.1965751,26.9835439 51.9441058,26.8720468 51.6796397,26.8716216 L44.4089879,26.8716216 C43.3956694,26.8726301 42.5446898,26.0988741 42.4359109,25.0775946 C42.3144696,23.9362532 42.4578367,22.7819356 42.8545749,21.7067297 C43.1645138,20.8722045 43.3230159,19.9877372 43.3224291,19.096027 L43.3224291,18.4987568 C43.3210945,17.4577122 42.6242947,16.5498014 41.6291903,16.2925135 L41.3985425,17.8183784 C41.0323219,20.2280618 40.1098301,22.5159908 38.7061943,24.4958378 C37.7785993,25.7878932 36.2981604,26.5532918 34.7217814,26.5558108 L33.8352632,26.5558108 L33.8352632,36.8910243 L34.6013198,36.8910243 C36.5107069,36.8906023 38.3821905,37.4312795 40.0044899,38.4520162 C41.3655304,39.3081405 43.0096883,39.3789486 44.7158259,39.3789486 L50.7826275,39.3789486 C51.1632068,39.38287 51.5165435,39.1792969 51.7079586,38.8458239 C51.8993737,38.5123509 51.8993737,38.1003599 51.7079586,37.7668869 C51.5165435,37.4334139 51.1632068,37.2298408 50.7826275,37.2337622 L48.0726802,37.2337622 C47.7104529,37.2337622 47.4168097,36.936092 47.4168097,36.5688973 C47.4168097,36.2017026 47.7104529,35.9040324 48.0726802,35.9040324 L51.5681417,35.9040324 C52.156761,35.9040324 52.6339312,35.4203185 52.6339312,34.823627 C52.6339312,34.2269356 52.156761,33.7432216 51.5681417,33.7432216 L49.1436073,33.7432216 C48.78138,33.7432216 48.4877368,33.4455515 48.4877368,33.0783568 C48.4877368,32.711162 48.78138,32.4134919 49.1436073,32.4134919 L51.5145789,32.4134919 C52.1283144,32.4073429 52.6226522,31.9012486 52.6226522,31.2790662 C52.6226522,30.6568838 52.1283144,30.1507895 51.5145789,30.1446405 L49.1436073,30.1446405 C48.78138,30.1446405 48.4877368,29.8469704 48.4877368,29.4797757 C48.4877368,29.112581 48.78138,28.8149108 49.1436073,28.8149108 L50.0922676,28.8149108 Z M32.5237409,38.9179757 L32.5237409,24.2652405 L27.6739069,24.2652405 L27.6739069,38.9179757 L32.5237409,38.9179757 Z" id="Combined-Shape" fill="#D9DCEC"></path>
                        <path d="M4.34667206,31.0405459 L4.34667206,8.22094324 C4.33740646,6.30828035 5.85796447,4.7493662 7.74473684,4.73716216 L41.7898785,4.73716216 C41.8894615,4.73716216 41.9879514,4.74248108 42.0850202,4.75112432 C41.9428445,2.95998584 40.4727699,1.57668794 38.7001822,1.56608919 L4.65558704,1.56608919 C2.76862594,1.57811064 1.24781994,3.13712802 1.25708502,5.04998108 L1.25708502,27.8695838 C1.25708502,29.6910919 2.62501215,31.2043243 4.36153846,31.3594595 C4.35213765,31.2543 4.34667206,31.1480324 4.34667206,31.0405459 Z" id="Path" fill="#F2F2FA"></path>
                    </g>
                </g>
            </g>
        </g>
    </g>
</svg>