<?xml version="1.0" encoding="UTF-8"?>
<svg width="34px" height="10px" viewBox="0 0 34 10" version="1.1" xmlns="http://www.w3.org/2000/svg" xmlns:xlink="http://www.w3.org/1999/xlink">
    <!-- Generator: Sketch 53 (72520) - https://sketchapp.com -->
    <title>visa</title>
    <desc>Created with Sketch.</desc>
    <g id="Page-1" stroke="none" stroke-width="1" fill="none" fill-rule="evenodd">
        <g id="Home-Page" transform="translate(-1438.000000, -6997.000000)" fill="#FFFFFF">
            <g id="Footer" transform="translate(0.000000, 6791.000000)">
                <g id="Payment" transform="translate(1349.000000, 190.000000)">
                    <g id="Payment/visa" transform="translate(89.000000, 16.000000)">
                        <g id="visa">
                            <path d="M12.4666667,9.78947368 L14.1936508,0.315789474 L16.8920635,0.315789474 L15.2190476,9.78947368 L12.4666667,9.78947368 Z M24.9873016,0.421052632 L24.5555556,2.47368421 L24.2857143,2.36842105 C23.8,2.15789474 23.152381,2 22.2349206,2 C21.1555556,2 20.6698413,2.42105263 20.6698413,2.84210526 C20.6698413,3.31578947 21.2634921,3.57894737 22.2349206,4.05263158 C23.8539683,4.73684211 24.5555556,5.57894737 24.5555556,6.68421053 C24.5555556,8.68421053 22.6666667,10 19.8063492,10 C18.5650794,10 17.3777778,9.73684211 16.7301587,9.47368421 L17.1079365,7.31578947 L17.4857143,7.47368421 C18.4031746,7.84210526 18.9968254,8 20.0761905,8 C20.831746,8 21.6952381,7.68421053 21.6952381,7.05263158 C21.6952381,6.63157895 21.3714286,6.31578947 20.2920635,5.84210526 C19.2126984,5.36842105 17.8634921,4.63157895 17.8634921,3.21052632 C17.8634921,1.31578947 19.8063492,0 22.5047619,0 C23.584127,0 24.447619,0.210526316 24.9873016,0.421052632 Z M29.6285714,0.315789474 C28.9809524,0.315789474 28.4952381,0.368421053 28.2253968,1 L24.1777778,9.78947368 L27.0920635,9.78947368 L27.631746,8.21052632 L31.0857143,8.21052632 L31.4095238,9.78947368 L34,9.78947368 L31.7333333,0.315789474 L29.6285714,0.315789474 Z M3.48825573,1.5399442 C2.60909624,1.05914372 1.60397553,0.676653656 0.485714286,0.421052632 L0,0.315789474 L5.01904762,0.315789474 C5.61269841,0.315789474 6.0984127,0.473684211 6.26031746,1.10526316 L7.23174603,5.57894737 L7.5015873,6.94736842 L10.2539683,0.368421053 L13.168254,0.368421053 L8.7968254,9.84210526 L5.88253968,9.84210526 L3.48825573,1.5399442 Z M28.3873016,6.63157895 C28.5492063,6.15789474 29.4666667,3.84210526 29.4666667,3.84210526 C29.4666667,3.84210526 29.6825397,3.26315789 29.8444444,2.89473684 L30.0063492,3.78947368 C30.0063492,3.78947368 30.5460317,6.15789474 30.6539683,6.68421053 L28.3873016,6.68421053 L28.3873016,6.63157895 Z" id="Combined-Shape" fill-rule="nonzero"></path>
                        </g>
                    </g>
                </g>
            </g>
        </g>
    </g>
</svg>