<?xml version="1.0" encoding="UTF-8"?>
<svg width="36px" height="14px" viewBox="0 0 36 14" version="1.1" xmlns="http://www.w3.org/2000/svg" xmlns:xlink="http://www.w3.org/1999/xlink">
    <!-- Generator: Sketch 53 (72520) - https://sketchapp.com -->
    <title>wire-transfer</title>
    <desc>Created with Sketch.</desc>
    <g id="Page-1" stroke="none" stroke-width="1" fill="none" fill-rule="evenodd">
        <g id="Home-Page" transform="translate(-1509.000000, -7050.000000)" fill="#FFFFFF">
            <g id="Footer" transform="translate(0.000000, 6791.000000)">
                <g id="Payment" transform="translate(1349.000000, 190.000000)">
                    <g id="Payment/wire-transfer" transform="translate(160.000000, 69.000000)">
                        <g id="wire-transfer">
                            <path d="M8.135,13.785 L8.135,13.892 L7.186,13.892 C7.129,13.699 7.096,13.488 7.096,13.064 C7.096,12.503 7.061,12.287 6.426,12.287 L5.541,12.287 L5.541,13.892 L4.699,13.892 L4.699,9.788 L6.775,9.788 C7.867,9.788 8.066,10.596 8.066,10.948 C8.066,11.401 7.837,11.788 7.431,11.927 C7.769,12.074 7.952,12.199 7.952,12.966 C7.953,13.569 7.953,13.717 8.135,13.785 Z M7.209,11.035 C7.209,10.818 7.111,10.498 6.609,10.498 L5.541,10.498 L5.541,11.598 L6.545,11.598 C6.992,11.598 7.209,11.442 7.209,11.035 Z M10.85,9.789 L12.295,13.893 L11.363,13.893 L11.099,13.047 L9.585,13.047 L9.3,13.893 L8.396,13.893 L9.859,9.789 L10.85,9.789 Z M10.861,12.34 L10.349,10.717 L10.342,10.717 L9.815,12.34 L10.861,12.34 Z M0.85,10.516 L2.09,10.516 L2.09,13.893 L2.945,13.893 L2.945,10.516 L4.187,10.516 L4.187,9.789 L0.849,9.789 L0.85,10.516 L0.85,10.516 Z M20.797,13.895 L21.654,13.895 L21.654,12.168 L23.459,12.168 L23.459,11.441 L21.654,11.441 L21.654,10.515 L23.716,10.515 L23.716,9.787 L20.796,9.787 L20.797,13.895 L20.797,13.895 Z M25.133,12.105 L27.133,12.105 L27.133,11.378 L25.133,11.378 L25.133,10.515 L27.311,10.515 L27.311,9.788 L24.293,9.788 L24.293,13.892 L27.408,13.892 L27.408,13.165 L25.133,13.165 L25.133,12.105 L25.133,12.105 Z M15.352,12.649 L15.342,12.649 L13.711,9.79 L12.809,9.79 L12.809,13.894 L13.608,13.894 L13.608,10.968 L13.62,10.968 L15.294,13.894 L16.153,13.894 L16.153,9.79 L15.352,9.79 L15.352,12.649 L15.352,12.649 Z M19.064,11.557 L18.066,11.311 C17.894,11.272 17.629,11.203 17.629,10.883 C17.629,10.51 18.021,10.391 18.344,10.391 C19.094,10.391 19.16,10.828 19.187,11.008 L20.006,11.008 C20,10.506 19.664,9.682 18.405,9.682 C17.074,9.682 16.83,10.49 16.83,10.947 C16.83,11.85 17.469,11.998 18.133,12.152 L18.571,12.256 C19.008,12.36 19.315,12.444 19.315,12.764 C19.315,13.2 18.862,13.295 18.459,13.295 C17.709,13.295 17.594,12.86 17.588,12.633 L16.77,12.633 C16.77,13.141 17.026,14.004 18.524,14.004 C18.882,14.004 20.141,13.895 20.141,12.661 C20.141,11.924 19.627,11.694 19.064,11.557 Z M31.543,13.785 L31.543,13.892 L30.596,13.892 C30.539,13.699 30.506,13.488 30.506,13.064 C30.506,12.503 30.469,12.287 29.836,12.287 L28.951,12.287 L28.951,13.892 L28.109,13.892 L28.109,9.788 L30.183,9.788 C31.275,9.788 31.476,10.596 31.476,10.948 C31.476,11.401 31.246,11.788 30.839,11.927 C31.175,12.074 31.36,12.199 31.36,12.966 C31.361,13.569 31.361,13.717 31.543,13.785 Z M30.619,11.035 C30.619,10.818 30.521,10.498 30.017,10.498 L28.951,10.498 L28.951,11.598 L29.955,11.598 C30.402,11.598 30.619,11.442 30.619,11.035 Z M28,6.58169177 L28,8 L22.0149531,8 L22.0149531,0.00463499421 L27.8144242,0.00463499421 L27.8144242,1.41830823 L23.6311992,1.41830823 L23.6311992,3.09803013 L27.4734402,3.09803013 L27.4734402,4.51077636 L23.6311992,4.51077636 L23.6311992,6.58169177 L28,6.58169177 Z M12.5451043,0 L12.5451043,7.99536501 L10.8986908,7.99536501 L10.8986908,0 L12.5451043,0 Z M5.0068889,1.7622248 L4.98586307,1.7622248 C4.74269483,3.29918888 4.61288322,3.87856315 3.76636521,7.999073 L2.22873747,7.999073 L-1.61648472e-13,0.00370799536 L1.75519932,0.00370799536 C2.7653531,4.38006952 2.86591139,4.93719583 3.00852134,5.85028969 L3.03046133,5.85028969 C3.17307127,5.01413673 3.29282706,4.20115875 4.12837507,0.00370799536 L5.87443273,0.00370799536 C6.79591237,4.39212051 6.87453067,4.81575898 7.04913644,5.85028969 L7.07107643,5.85028969 C7.20271638,5.09200463 7.33344216,4.4004635 8.35639427,0.00370799536 L10.0265761,0.00370799536 L7.80698031,7.999073 L6.22638676,7.999073 C5.41369291,4.0778679 5.26925463,3.29733488 5.0068889,1.7622248 Z M18.6846453,6.38331402 C18.6846453,5.29038239 18.6188253,4.86674392 17.4011558,4.86674392 L15.6998923,4.86674392 L15.6998923,7.998146 L14.0836462,7.998146 L14.0836462,0.00278099652 L18.0684972,0.00278099652 C20.1665089,0.00278099652 20.552287,1.57126304 20.552287,2.26280417 C20.552287,3.14067207 20.1134872,3.89988413 19.3327892,4.16593279 C19.9809331,4.45515643 20.3310588,4.70173812 20.3310588,6.19420626 C20.3310588,7.3631518 20.3310588,7.65330243 20.6830128,7.78679027 L20.6830128,7.999073 L18.8619935,7.999073 C18.7513794,7.61807648 18.6846453,7.20463499 18.6846453,6.38331402 Z M29.3737791,2.13535853 L32.0039428,4.17271326 L29.3737791,6.21006798 L29.3737791,2.13535853 Z M33.3737791,2.13535853 L36.0039428,4.17271326 L33.3737791,6.21006798 L33.3737791,2.13535853 Z M18.9049594,2.42873696 C18.9049594,2.00509849 18.7193836,1.38215527 17.7512815,1.38215527 L15.6998923,1.38215527 L15.6998923,3.5216686 L17.6296973,3.5216686 C18.4871853,3.5207416 18.9049594,3.21946698 18.9049594,2.42873696 Z" fill-rule="nonzero"></path>
                        </g>
                    </g>
                </g>
            </g>
        </g>
    </g>
</svg>