<?xml version="1.0" encoding="UTF-8"?>
<svg xmlns="http://www.w3.org/2000/svg" xmlns:xlink="http://www.w3.org/1999/xlink" width="10pt" height="7pt" viewBox="0 0 10 7" version="1.1">
<g id="surface1">
<path style=" stroke:none;fill-rule:nonzero;fill:rgb(16.862745%,52.941176%,96.078431%);fill-opacity:1;" d="M 0.519531 4.027344 L 8.238281 4.027344 L 6.214844 6.097656 C 6.015625 6.304688 6.015625 6.636719 6.214844 6.84375 C 6.316406 6.949219 6.449219 7 6.582031 7 C 6.71875 7 6.847656 6.949219 6.949219 6.84375 L 9.847656 3.875 C 10.050781 3.667969 10.050781 3.332031 9.847656 3.125 L 6.949219 0.15625 C 6.746094 -0.0507812 6.421875 -0.0507812 6.21875 0.15625 C 6.019531 0.363281 6.019531 0.695312 6.21875 0.902344 L 8.242188 2.972656 L 0.519531 2.972656 C 0.230469 2.972656 0 3.207031 0 3.503906 C 0 3.796875 0.230469 4.027344 0.519531 4.027344 Z M 0.519531 4.027344 "/>
</g>
</svg>
