<?xml version="1.0" encoding="UTF-8"?>
<svg xmlns="http://www.w3.org/2000/svg" xmlns:xlink="http://www.w3.org/1999/xlink" width="21pt" height="33pt" viewBox="0 0 21 33" version="1.1">
<defs>
<linearGradient id="linear0" gradientUnits="userSpaceOnUse" x1="0.5" y1="1" x2="0.5" y2="0.000000000000000031" gradientTransform="matrix(21,0,0,33,0,0)">
<stop offset="0" style="stop-color:rgb(100%,65.098039%,4.313725%);stop-opacity:1;"/>
<stop offset="1" style="stop-color:rgb(100%,84.705882%,21.960784%);stop-opacity:1;"/>
</linearGradient>
</defs>
<g id="surface1">
<path style=" stroke:none;fill-rule:nonzero;fill:url(#linear0);" d="M 17.585938 16.589844 L 14 16.007812 L 14 15.351562 L 12.832031 15.351562 L 12.832031 16.417969 L 12.515625 17.648438 L 11.324219 16.488281 L 9.675781 16.488281 L 8.484375 17.648438 L 8.167969 16.417969 L 8.167969 15.351562 L 7 15.351562 L 7 16.007812 L 3.414062 16.589844 C 1.433594 16.910156 0 18.5625 0 20.515625 L 0 26.152344 C 0 27.722656 1.308594 28.996094 2.917969 28.996094 L 3.5 28.996094 L 3.5 33 L 17.5 33 L 17.5 28.996094 L 18.082031 28.996094 C 19.691406 28.996094 21 27.722656 21 26.152344 L 21 20.515625 C 21 18.5625 19.566406 16.910156 17.585938 16.589844 Z M 1.167969 26.152344 L 1.167969 24.449219 L 3.5 24.449219 L 3.5 25.585938 L 7 25.585938 C 7.644531 25.585938 8.167969 26.09375 8.167969 26.722656 C 8.167969 27.347656 7.644531 27.859375 7 27.859375 L 2.917969 27.859375 C 1.953125 27.859375 1.167969 27.09375 1.167969 26.152344 Z M 16.332031 31.863281 L 4.667969 31.863281 L 4.667969 28.996094 L 7 28.996094 C 8.285156 28.996094 9.332031 27.976562 9.332031 26.722656 C 9.332031 25.46875 8.285156 24.449219 7 24.449219 L 4.667969 24.449219 L 4.667969 21.035156 L 3.5 21.035156 L 3.5 23.308594 L 1.167969 23.308594 L 1.167969 20.515625 C 1.167969 19.121094 2.191406 17.941406 3.605469 17.710938 L 7.148438 17.136719 L 7.851562 19.875 L 10.15625 17.625 L 10.84375 17.625 L 13.148438 19.875 L 13.851562 17.136719 L 17.394531 17.710938 C 18.808594 17.941406 19.832031 19.121094 19.832031 20.515625 L 19.832031 23.308594 L 17.5 23.308594 L 17.5 21.035156 L 16.332031 21.035156 L 16.332031 24.449219 L 14 24.449219 C 12.714844 24.449219 11.667969 25.46875 11.667969 26.722656 C 11.667969 27.976562 12.714844 28.996094 14 28.996094 L 16.332031 28.996094 Z M 18.082031 27.859375 L 14 27.859375 C 13.355469 27.859375 12.832031 27.347656 12.832031 26.722656 C 12.832031 26.09375 13.355469 25.585938 14 25.585938 L 17.5 25.585938 L 17.5 24.449219 L 19.832031 24.449219 L 19.832031 26.152344 C 19.832031 27.09375 19.046875 27.859375 18.082031 27.859375 Z M 15.167969 30.726562 L 5.832031 30.726562 L 5.832031 28.996094 L 7 28.996094 L 7 29.589844 L 14 29.589844 L 14 28.996094 L 15.167969 28.996094 Z M 15.167969 24.441406 L 14 24.441406 L 14 21.035156 L 7 21.035156 L 7 24.441406 L 5.832031 24.441406 L 5.832031 19.898438 L 15.167969 19.898438 Z M 8.167969 22.171875 L 12.832031 22.171875 L 12.832031 23.308594 L 8.167969 23.308594 Z M 5.285156 11.289062 C 5.390625 11.976562 5.742188 12.605469 6.300781 13.058594 L 8.636719 14.957031 C 8.949219 15.210938 9.347656 15.351562 9.753906 15.351562 L 11.246094 15.351562 C 11.652344 15.351562 12.050781 15.210938 12.367188 14.957031 L 14.699219 13.058594 C 15.257812 12.605469 15.613281 11.976562 15.714844 11.289062 C 16.699219 11.027344 17.5 10.105469 17.5 9.097656 C 17.5 8.566406 17.269531 8.0625 16.917969 7.660156 L 16.917969 5.117188 C 16.917969 4.070312 16.058594 3.105469 15.019531 2.886719 C 14.320312 1.144531 12.328125 0 9.917969 0 C 6.535156 0 4.082031 2.628906 4.082031 6.253906 L 4.082031 7.660156 C 3.730469 8.0625 3.5 8.566406 3.5 9.097656 C 3.5 10.105469 4.300781 11.027344 5.285156 11.289062 Z M 4.667969 9.097656 C 4.667969 8.730469 4.917969 8.363281 5.25 8.148438 L 5.25 10.046875 C 4.917969 9.832031 4.667969 9.464844 4.667969 9.097656 Z M 13.953125 12.183594 L 11.617188 14.082031 C 11.511719 14.167969 11.378906 14.214844 11.246094 14.214844 L 9.753906 14.214844 C 9.621094 14.214844 9.484375 14.167969 9.382812 14.082031 L 7.046875 12.183594 C 6.648438 11.859375 6.417969 11.382812 6.417969 10.875 L 6.417969 7.960938 L 8.027344 7.960938 C 9.542969 7.960938 10.984375 7.460938 12.148438 6.539062 C 12.753906 7.285156 13.625 7.769531 14.582031 7.910156 L 14.582031 10.875 C 14.582031 11.382812 14.351562 11.859375 13.953125 12.183594 Z M 15.75 10.046875 L 15.75 8.148438 C 16.082031 8.363281 16.332031 8.730469 16.332031 9.097656 C 16.332031 9.460938 16.082031 9.832031 15.75 10.046875 Z M 9.917969 1.136719 C 11.960938 1.136719 13.613281 2.113281 14.019531 3.5625 L 14.136719 3.980469 L 14.582031 3.980469 C 15.160156 3.980469 15.75 4.554688 15.75 5.117188 L 15.75 6.914062 C 15.558594 6.859375 15.367188 6.824219 15.167969 6.824219 C 14.265625 6.824219 13.429688 6.386719 12.929688 5.65625 L 12.339844 4.792969 L 11.835938 5.28125 C 10.820312 6.277344 9.464844 6.824219 8.027344 6.824219 L 5.832031 6.824219 C 5.632812 6.824219 5.441406 6.859375 5.25 6.914062 L 5.25 6.253906 C 5.25 3.289062 7.210938 1.136719 9.917969 1.136719 Z M 9.917969 1.136719 "/>
</g>
</svg>
