<?xml version="1.0" encoding="UTF-8"?>
<svg width="44px" height="40px" viewBox="0 0 44 40" version="1.1" xmlns="http://www.w3.org/2000/svg" xmlns:xlink="http://www.w3.org/1999/xlink">
    <!-- Generator: Sketch 53 (72520) - https://sketchapp.com -->
    <title>Group 3</title>
    <desc>Created with Sketch.</desc>
    <defs>
        <linearGradient x1="50%" y1="100%" x2="50%" y2="3.061617e-15%" id="linearGradient-1">
            <stop stop-color="#FFA60B" offset="0%"></stop>
            <stop stop-color="#FFD838" offset="100%"></stop>
        </linearGradient>
        <linearGradient x1="50%" y1="100%" x2="50%" y2="3.061617e-15%" id="linearGradient-2">
            <stop stop-color="#FFA60B" offset="0%"></stop>
            <stop stop-color="#FFD838" offset="100%"></stop>
        </linearGradient>
    </defs>
    <g id="Page-1" stroke="none" stroke-width="1" fill="none" fill-rule="evenodd">
        <g id="Home-Page" transform="translate(-1372.000000, -791.000000)" fill-rule="nonzero">
            <g id="Why" transform="translate(0.000000, 712.000000)">
                <g id="Icon/Why-us-3" transform="translate(1372.000000, 79.000000)">
                    <g id="Group-3">
                        <path d="M43.1407109,20.2625091 L36.6759766,20.2625091 L36.6759766,18.4557335 C36.6759766,17.5775005 35.9729219,16.862948 35.1088203,16.862948 L33.9552812,16.862948 C33.3645469,14.0723418 32.0040703,11.5306628 30.0073125,9.50116275 C26.6190547,6.05749348 21.7779375,4.52174293 17.0571328,5.3922898 C16.5902344,5.47840992 16.2803438,5.93294247 16.3650781,6.4075639 C16.4498125,6.88218532 16.8971172,7.19679451 17.3640156,7.11093643 C21.5301797,6.34249342 25.8024766,7.69770616 28.7920703,10.7363663 C30.4660469,12.437719 31.6335937,14.5463518 32.1929609,16.8630354 L27.5019766,16.8630354 C26.637875,16.8630354 25.9348203,17.5775878 25.9348203,18.4558209 L25.9348203,20.2625965 L19.4700859,20.2625965 C18.9955391,20.2625965 18.6107969,20.6537181 18.6107969,21.1359383 L18.6107969,26.4934657 C18.6107969,27.3132663 18.9248984,28.0594369 19.4364844,28.6158113 L19.4364844,33.0977258 C16.0842344,33.0395554 12.9536172,31.6917668 10.5637812,29.2627603 C7.49624219,26.1450548 6.18208594,21.700785 7.04842187,17.3741661 C7.14303906,16.9015536 6.84277344,16.440383 6.37776563,16.3442184 C5.91258594,16.2479665 5.45900781,16.5532301 5.36439062,17.0258426 C4.3828125,21.9283133 5.87210937,26.964506 9.34845312,30.4977891 C12.0233437,33.2164248 15.6664922,34.7770681 19.4363984,34.843012 L19.4363984,38.007708 C19.4363984,38.0896357 19.4418125,38.1701658 19.4513516,38.2494732 C9.65267187,38.125621 1.71849219,29.9872698 1.71849219,19.9995196 C1.71849219,16.8763989 2.50009375,13.8235891 3.98466406,11.1182296 L6.8839375,14.0788925 C7.04524219,14.2436212 7.26446875,14.3362047 7.49297656,14.3362047 L12.8975859,14.3362047 L18.1958906,19.7211577 C18.3637266,19.8917385 18.5836406,19.9769851 18.8034687,19.9769851 C19.0233828,19.9769851 19.2433828,19.8917385 19.4110469,19.7211577 C19.7466328,19.3800836 19.7466328,18.8271156 19.4110469,18.4859542 L14.1126562,13.1010012 L14.1126562,7.60800498 C14.1126562,7.37602219 14.0218203,7.15355977 13.8601719,6.98970445 L10.9528203,4.04205562 C13.6112109,2.53827258 16.6099141,1.74659636 19.6775391,1.74659636 C26.6484453,1.74659636 33.0476953,5.90176105 35.9806562,12.3324708 C36.1260625,12.6512725 36.4364687,12.8387104 36.7607969,12.8387104 C36.8817969,12.8387104 37.0046875,12.8125948 37.1216484,12.7574815 C37.5521953,12.5545839 37.7394531,12.0354176 37.5399063,11.5978295 C35.9828047,8.1837695 33.5162266,5.29070999 30.4065781,3.23151333 C27.2142578,1.11737797 23.5041641,-3.55271368e-15 19.677625,-3.55271368e-15 C16.1522969,-3.55271368e-15 12.709125,0.954570764 9.69185937,2.76361731 L7.21883594,0.256002096 C6.97279688,0.00663806186 6.6034375,-0.0677781053 6.28263281,0.0676034195 C5.96174219,0.202897601 5.75274219,0.521175199 5.75274219,0.874215278 L5.75274219,5.82367648 L0.867882812,5.82367648 C0.520609375,5.82367648 0.207625,6.03600712 0.074421875,6.36179621 C-0.05878125,6.68767264 0.013921875,7.06289782 0.25884375,7.31304794 L2.72808594,9.83455068 C0.942304687,12.9052657 0,16.4102497 0,19.9994323 C0,25.3414999 2.04685937,30.3638924 5.76348437,34.141299 C9.48010937,37.9187929 14.4216875,39.9990392 19.6777969,39.9990392 L41.2139922,40 C42.2949141,40 43.1743125,39.1063073 43.1743125,38.0076207 L43.1743125,28.6161606 C43.707125,28.0379505 44,27.2879369 44,26.4918061 L44,21.1357637 C44,20.6535434 43.6152578,20.2625091 43.1407109,20.2625091 Z M7.47123438,2.97909229 L12.39425,7.97021606 L12.39425,11.3507364 L7.47123438,6.3359427 L7.47123438,2.97909229 Z M11.1790078,12.5891717 L7.85013281,12.5891717 L2.93545313,7.57044752 L6.25547656,7.57044752 L11.1790078,12.5891717 Z M27.6533125,18.6096317 L34.9572266,18.6096317 L34.9572266,20.2625091 L27.6533125,20.2625091 L27.6533125,18.6096317 Z M35.8166016,34.0605942 C35.3420547,34.0605942 34.9573125,34.4517157 34.9573125,34.933936 C34.9573125,35.4161563 35.3420547,35.8072778 35.8166016,35.8072778 L41.4556484,35.8072778 L41.4556484,38.0075333 C41.4556484,38.1430895 41.3472812,38.2533163 41.2139922,38.2533163 L22.4500547,38.2533163 C22.4459297,38.2532581 22.091724,38.2529378 21.3874375,38.2523555 C21.2584453,38.247377 21.1548906,38.1399452 21.1548906,38.0076207 L21.1548906,29.5592895 C21.3230703,29.588462 21.4956328,29.6045331 21.6718047,29.6045331 L28.7585547,29.6045331 C28.9109219,30.8956361 29.9945937,31.899905 31.3053125,31.899905 C32.6180078,31.899905 33.7030547,30.8924918 33.8527578,29.5985064 L40.9367578,29.6030483 C41.1137891,29.6030483 41.2864375,29.5873265 41.4556484,29.5582414 L41.4555625,34.0605942 L35.8166016,34.0605942 Z M30.4582266,29.2921948 L30.4582266,27.7569683 L32.1525703,27.7569683 L32.1525703,29.2921948 C32.1525703,29.7669909 31.7724688,30.1532213 31.3053984,30.1532213 C30.8383281,30.1532213 30.4582266,29.7669909 30.4582266,29.2921948 Z M41.8878281,27.4570327 C41.6342266,27.714607 41.2972656,27.8564519 40.9387344,27.8564519 C40.9385625,27.8564519 38.5826719,27.854938 33.8710625,27.8519101 L33.8710625,27.0514996 C33.8710625,26.4773946 33.4115547,26.0102846 32.8466016,26.0102846 L29.7639375,26.0102846 C29.1990703,26.0102846 28.7394766,26.4773072 28.7394766,27.0514996 L28.7394766,27.8578494 L21.6718047,27.8578494 C20.9314531,27.8578494 20.3292031,27.2456629 20.3292031,26.493291 L20.3292031,22.0091928 L42.2814219,22.0091928 L42.2813359,26.4918061 C42.2814219,26.8565502 42.1416875,27.1992838 41.8878281,27.4570327 Z M38.7976016,15.2515585 C38.9094922,15.7202406 38.6261562,16.1923291 38.1650156,16.3060496 C38.0970391,16.3228194 38.0288906,16.330855 37.9618594,16.330855 C37.5743672,16.330855 37.2227969,16.0627996 37.1274922,15.6631184 L37.1223359,15.641894 C37.0082969,15.1735613 37.2893984,14.7001627 37.7500234,14.5842586 C38.2106484,14.4684419 38.6765156,14.7539659 38.7905547,15.2222113 L38.7976016,15.2515585 Z M16.0435,26.1360584 C16.4498984,26.3853351 16.5805234,26.9220574 16.3353437,27.3350147 C16.1739531,27.6068258 15.8900156,27.757405 15.5988594,27.757405 C15.4476953,27.757405 15.2947266,27.7168779 15.1557656,27.6317186 C12.4992656,26.0025111 10.9132031,23.14928 10.9132031,19.9994323 C10.9132031,19.0267815 11.0666875,18.0702019 11.3693594,17.1562456 C11.5207812,16.6991801 12.0081328,16.4533971 12.4578437,16.6071206 C12.9075547,16.7609315 13.1494687,17.2563406 12.9980469,17.713406 C12.7549297,18.4474359 12.6316094,19.2165777 12.6316094,19.9993449 C12.6316094,22.5317655 13.9070937,24.8259146 16.0435,26.1360584 Z M25.6852578,13.5127357 C26.0306406,13.8433286 26.0470547,14.396122 25.7217812,14.7472405 C25.5526562,14.9297872 25.3245781,15.021934 25.0959844,15.021934 C24.88475,15.021934 24.6730859,14.943238 24.5071406,14.7843613 C23.1955625,13.5291562 21.4805078,12.8379243 19.6779687,12.8379243 C18.8329453,12.8379243 18.0070859,12.9881541 17.2229922,13.2844213 C16.7780078,13.4525564 16.2834375,13.2223205 16.1180937,12.7701462 C15.95275,12.3179719 16.1792812,11.8153134 16.6240937,11.6471783 C17.6003437,11.2784165 18.6278125,11.0913279 19.6778828,11.0913279 C21.9200781,11.0913279 24.0535625,11.9513063 25.6852578,13.5127357 Z M32.2140156,34.3165089 C32.3738594,34.4789667 32.4658125,34.7043115 32.4658125,34.933936 C32.4658125,35.1635605 32.3738594,35.3889053 32.2140156,35.5512758 C32.0533984,35.7138209 31.8325391,35.8072778 31.6065234,35.8072778 C31.3797344,35.8072778 31.158875,35.7137336 30.9981719,35.5512758 C30.8383281,35.3889053 30.7472344,35.1636479 30.7472344,34.933936 C30.7472344,34.7043115 30.8383281,34.4789667 30.9981719,34.3165089 C31.158875,34.1539637 31.3796484,34.0605942 31.6065234,34.0605942 C31.8324531,34.0605942 32.0541719,34.1540511 32.2140156,34.3165089 Z" id="why-us-3-1" fill="url(#linearGradient-1)"></path>
                        <path d="M6.8839375,14.0788925 C7.04524219,14.2436212 7.26446875,14.3362047 7.49297656,14.3362047 L12.8975859,14.3362047 L18.1958906,19.7211577 C18.3637266,19.8917385 18.5836406,19.9769851 18.8034687,19.9769851 C19.0233828,19.9769851 19.2433828,19.8917385 19.4110469,19.7211577 C19.7466328,19.3800836 19.7466328,18.8271156 19.4110469,18.4859542 L14.1126562,13.1010012 L14.1126562,7.60800498 C14.1126562,7.37602219 14.0218203,7.15355977 13.8601719,6.98970445 L7.21883594,0.256002096 C6.97279687,0.00663806186 6.6034375,-0.0677781053 6.28263281,0.0676034195 C5.96174219,0.202897601 5.75274219,0.521175199 5.75274219,0.874215278 L5.75274219,5.82367648 L0.867882812,5.82367648 C0.520609375,5.82367648 0.207625,6.03600712 0.074421875,6.36179621 C-0.05878125,6.68767264 0.013921875,7.06289782 0.25884375,7.31304794 L6.8839375,14.0788925 Z M7.47123437,2.97909229 L12.39425,7.97021606 L12.39425,11.3507364 L7.47123437,6.3359427 L7.47123437,2.97909229 Z M11.1790078,12.5891717 L7.85013281,12.5891717 L2.93545312,7.57044752 L6.25547656,7.57044752 L11.1790078,12.5891717 Z" id="why-us-3-2" fill="url(#linearGradient-2)"></path>
                    </g>
                </g>
            </g>
        </g>
    </g>
</svg>