<?xml version="1.0" encoding="UTF-8"?>
<svg xmlns="http://www.w3.org/2000/svg" xmlns:xlink="http://www.w3.org/1999/xlink" width="30pt" height="5pt" viewBox="0 0 30 5" version="1.1">
<g id="surface1">
<path style=" stroke:none;fill-rule:nonzero;fill:rgb(94.901961%,43.137255%,12.941176%);fill-opacity:1;" d="M 18.425781 2.488281 C 18.429688 1.871094 18.1875 1.25 17.703125 0.785156 C 17.21875 0.316406 16.574219 0.0859375 15.929688 0.0898438 C 15.925781 0.0898438 15.921875 0.0898438 15.917969 0.0898438 C 14.519531 0.0898438 13.414062 1.15625 13.414062 2.5 C 13.414062 3.832031 14.535156 4.910156 15.917969 4.910156 C 17.316406 4.910156 18.425781 3.84375 18.425781 2.5 C 18.425781 2.496094 18.425781 2.492188 18.425781 2.488281 Z M 18.425781 2.488281 "/>
<path style=" stroke:none;fill-rule:nonzero;fill:rgb(24.313725%,24.313725%,24.313725%);fill-opacity:1;" d="M 12.945312 3.519531 L 12.945312 3.566406 C 12.960938 3.550781 12.929688 3.535156 12.945312 3.519531 L 12.980469 4.585938 C 12.546875 4.773438 12.207031 4.863281 11.820312 4.863281 C 11.8125 4.863281 11.804688 4.863281 11.792969 4.863281 C 11.785156 4.863281 11.78125 4.863281 11.773438 4.863281 C 10.375 4.863281 9.265625 3.84375 9.265625 2.5 C 9.265625 1.96875 9.460938 1.472656 9.785156 1.070312 C 9.890625 0.929688 10.011719 0.808594 10.140625 0.699219 C 10.582031 0.324219 11.160156 0.0859375 11.773438 0.0429688 C 12.207031 0.0429688 12.546875 0.136719 12.929688 0.320312 L 12.929688 1.386719 C 12.546875 1.015625 12.207031 0.878906 11.773438 0.878906 C 11.371094 0.878906 11.023438 1.039062 10.75 1.285156 C 10.460938 1.609375 10.277344 1.988281 10.277344 2.453125 C 10.277344 3.375 10.945312 4.019531 11.855469 4.027344 C 12.226562 4.019531 12.570312 3.878906 12.945312 3.519531 Z M 21.589844 0.707031 L 21.800781 0.230469 L 22.8125 0.230469 L 20.738281 4.910156 L 20.210938 4.910156 L 18.234375 0.230469 L 19.246094 0.230469 L 20.5 3.289062 Z M 23.199219 2.269531 L 23.199219 0.230469 L 25.851562 0.230469 L 25.851562 1.015625 L 24.164062 1.015625 L 24.164062 1.988281 L 25.800781 1.988281 L 25.800781 2.777344 L 24.164062 2.777344 L 24.164062 4.03125 L 25.851562 4.03125 L 25.851562 4.769531 L 23.199219 4.769531 Z M 1.410156 0.230469 L 0.0585938 0.230469 L 0.0585938 4.769531 L 1.410156 4.769531 C 2.132812 4.769531 2.664062 4.585938 3.097656 4.261719 C 3.625 3.84375 3.964844 3.195312 3.964844 2.5 C 3.964844 1.15625 2.953125 0.230469 1.410156 0.230469 Z M 2.519531 3.660156 C 2.226562 3.890625 1.84375 4.03125 1.265625 4.03125 L 0.976562 4.03125 L 0.976562 1.015625 L 1.214844 1.015625 C 1.792969 1.015625 2.179688 1.109375 2.46875 1.386719 C 2.808594 1.664062 3 2.082031 3 2.5 C 3.046875 2.917969 2.855469 3.378906 2.519531 3.660156 Z M 4.398438 0.226562 L 5.3125 0.226562 L 5.3125 4.769531 L 4.398438 4.769531 Z M 7.628906 1.988281 C 8.6875 2.359375 8.976562 2.683594 8.976562 3.472656 C 8.976562 4.355469 8.300781 4.957031 7.339844 4.957031 C 6.664062 4.957031 6.132812 4.679688 5.699219 4.074219 L 6.277344 3.519531 C 6.46875 3.890625 6.855469 4.121094 7.289062 4.121094 C 7.722656 4.121094 8.011719 3.84375 8.011719 3.472656 C 8.011719 3.289062 7.917969 3.101562 7.722656 3.011719 C 7.628906 2.917969 7.484375 2.871094 7.097656 2.730469 C 6.230469 2.40625 5.941406 2.128906 5.941406 1.480469 C 5.941406 0.738281 6.613281 0.183594 7.433594 0.183594 C 7.964844 0.183594 8.445312 0.367188 8.832031 0.691406 L 8.351562 1.292969 C 8.109375 1.015625 7.867188 0.925781 7.578125 0.925781 C 7.195312 0.925781 6.90625 1.15625 6.90625 1.433594 C 6.90625 1.664062 7.050781 1.804688 7.628906 1.988281 Z M 28.453125 2.871094 C 29.175781 2.730469 29.5625 2.269531 29.5625 1.574219 C 29.5625 0.738281 28.933594 0.230469 27.875 0.230469 L 26.476562 0.230469 L 26.476562 4.769531 L 27.394531 4.769531 L 27.394531 2.964844 L 27.539062 2.964844 L 28.839844 4.769531 L 29.949219 4.769531 Z M 27.683594 2.3125 L 27.394531 2.3125 L 27.394531 0.925781 L 27.683594 0.925781 C 28.261719 0.925781 28.597656 1.15625 28.597656 1.621094 C 28.597656 2.082031 28.261719 2.3125 27.683594 2.3125 Z M 27.683594 2.3125 "/>
</g>
</svg>
