<?xml version="1.0" encoding="UTF-8"?>
<svg xmlns="http://www.w3.org/2000/svg" xmlns:xlink="http://www.w3.org/1999/xlink" width="38pt" height="52pt" viewBox="0 0 38 52" version="1.1">
<g id="surface1">
<path style="fill-rule:nonzero;fill:rgb(100%,100%,100%);fill-opacity:1;stroke-width:1;stroke-linecap:butt;stroke-linejoin:miter;stroke:rgb(92.941176%,93.72549%,96.862745%);stroke-opacity:1;stroke-miterlimit:4;" d="M 49.501439 17.457332 L 32.719984 0.497596 L 4.16838 0.497596 C 2.153577 0.497596 0.498561 2.213266 0.498561 4.3125 L 0.498561 64.6875 C 0.498561 66.786734 2.153577 68.502404 4.16838 68.502404 L 45.83162 68.502404 C 47.846423 68.502404 49.501439 66.786734 49.501439 64.6875 Z M 49.501439 17.457332 " transform="matrix(0.76,0,0,0.753623,0.000000000000003553,0.000000000000049738)"/>
<path style=" stroke:none;fill-rule:nonzero;fill:rgb(52.54902%,57.254902%,61.960784%);fill-opacity:1;" d="M 7.390625 24.40625 L 7.390625 23.347656 L 25.417969 23.347656 L 25.417969 24.40625 Z M 7.390625 28.652344 L 7.390625 27.59375 L 25.417969 27.59375 L 25.417969 28.652344 Z M 7.390625 32.898438 L 7.390625 31.835938 L 15.917969 31.835938 L 15.917969 32.898438 Z M 7.390625 32.898438 "/>
<path style=" stroke:none;fill-rule:nonzero;fill:rgb(56.470588%,75.686275%,12.54902%);fill-opacity:1;" d="M 28.5 13.796875 L 38 13.796875 L 25.332031 0 L 25.332031 10.347656 C 25.332031 12.242188 26.757812 13.796875 28.5 13.796875 Z M 28.5 13.796875 "/>
</g>
</svg>
