<?xml version="1.0" encoding="UTF-8"?>
<svg width="50px" height="51px" viewBox="0 0 50 51" version="1.1" xmlns="http://www.w3.org/2000/svg" xmlns:xlink="http://www.w3.org/1999/xlink">
    <!-- Generator: Sketch 53 (72520) - https://sketchapp.com -->
    <title>2</title>
    <desc>Created with Sketch.</desc>
    <g id="Page-1" stroke="none" stroke-width="1" fill="none" fill-rule="evenodd">
        <g id="Home-Page" transform="translate(-380.000000, -4423.000000)" fill-rule="nonzero">
            <g id="HP-text" transform="translate(359.000000, 3311.000000)">
                <g id="Text-3" transform="translate(0.000000, 1112.000000)">
                    <g id="2" transform="translate(21.000000, 0.000000)">
                        <path d="M19.0955435,1.64910625 C13.9049891,2.18865086 9.92277692,6.39756155 9.77717391,11.49795 C9.48717391,11.4930625 9.32467391,11.4849875 9.31847826,11.4849875 C9.11616856,11.4748258 8.91806566,11.5439452 8.76806314,11.6770307 C8.61806062,11.8101163 8.52854414,11.9961793 8.51934783,12.1939937 L8.33456522,16.1585 C8.32505089,16.4112966 8.1783469,16.6399479 7.94967391,16.7583875 C7.84194916,16.8151286 7.72181308,16.8456349 7.59945652,16.8473187 L7.59945652,11.7685687 C7.60019525,8.88531749 8.85200179,6.13767582 11.0438747,4.20827358 C13.2357477,2.27887133 16.1619695,1.34879193 19.0955435,1.64910625 Z M10.6982609,24.0755062 C11.4833481,28.1416586 14.8867192,31.2335979 19.0927174,31.7018125 C14.0673001,32.2682532 9.45040153,28.9367617 8.52391304,24.0755062 C8.51927536,24.0518479 8.51355072,24.0284729 8.50673913,24.0053812 L7.9475,22.1247562 C7.89267603,21.8155243 7.64517582,21.5732103 7.32891304,21.5191312 C6.77138834,21.4223113 6.27968899,21.1043257 5.97047911,20.6406221 C5.66126924,20.1769185 5.5621075,19.6088249 5.69652174,19.0711312 C5.8044614,18.6102224 6.1618143,18.2440295 6.62771739,18.1169 C7.31041544,18.4384584 8.11280856,18.4026983 8.76274017,18.0217488 C9.41267177,17.6407993 9.82292429,16.965782 9.85434783,16.22565 L10.0051087,12.98885 C10.6607609,12.9949062 11.6995652,12.9827937 12.9713043,12.8943937 C13.0078261,12.9251 13.045,12.954425 13.0816304,12.9847062 C12.7317391,12.9907625 12.4279348,12.9910812 12.1794565,12.98885 L12.0286957,16.22565 C11.994556,16.9645979 11.5838041,17.6376345 10.9348096,18.0180347 C10.2858152,18.3984349 9.48497416,18.4355586 8.80206522,18.1169 C8.33616212,18.2440295 7.97880923,18.6102224 7.87086957,19.0711312 C7.73645533,19.6088249 7.83561706,20.1769185 8.14482694,20.6406221 C8.45403682,21.1043257 8.94573617,21.4223113 9.50326087,21.5191312 C9.81952364,21.5732103 10.0670239,21.8155243 10.1218478,22.1247562 L10.681087,24.0053812 C10.687971,24.0284729 10.6936957,24.0518479 10.6982609,24.0755062 Z M15.9728261,35.2298437 C16.9555587,35.6890662 18.0104407,35.983105 19.0931522,36.0996062 C17.2799036,36.2983915 15.4459368,35.9969516 13.798913,35.2294187 L13.798913,32.4456687 C14.500049,32.7247598 15.2284467,32.9333072 15.9728261,33.0680812 L15.9728261,35.2298437 Z M3.80956522,42.5464312 C3.73006154,42.8932176 3.6918368,43.2478256 3.69565217,43.6031937 L3.69565217,48.3419437 L1.52173913,48.3419437 L1.52173913,43.6031937 C1.51800347,43.2478529 1.55630113,42.8932809 1.63586957,42.5465375 C1.6507971,42.4839917 1.66699275,42.4216583 1.68445652,42.3595375 C2.12923913,40.7763062 3.38663043,39.5168187 5.04804348,38.99035 L12.9593478,36.48285 C13.2592754,36.6297583 13.5641304,36.7628187 13.873913,36.8820312 L7.22173913,38.9902437 C5.56032609,39.5167125 4.30293478,40.7763062 3.85815217,42.3594312 C3.84076087,42.4214812 3.82456522,42.4838146 3.80956522,42.5464312 Z M32.5517391,40.236875 C32.557871,44.6932231 35.9600947,48.4466637 40.4851087,48.9892187 C40.1249764,49.0328845 39.7624569,49.055061 39.3995652,49.055625 C36.0463588,49.0560547 32.9696191,47.2383367 31.411136,44.3361124 C29.8526529,41.4338881 30.0696422,37.9261475 31.9745256,35.2286349 C33.8794091,32.5311223 37.1578004,31.0890417 40.4865217,31.484425 C35.9609062,32.0263445 32.5579043,35.7800206 32.5517391,40.236875 Z" id="Combined-Shape" fill="#F2F2FA"></path>
                        <path d="M1.57869565,43.580775 C1.57487864,43.225629 1.61302989,42.87124 1.6923913,42.52465 C1.7075,42.4618562 1.72358696,42.3993812 1.74119565,42.3370125 C2.18586957,40.7538875 3.44336957,39.4941875 5.10478261,38.9677187 L13.016087,36.4602187 C16.1939891,38.0103298 19.932424,38.0103298 23.1103261,36.4602187 L29.6926087,38.5463312 L30.1619565,37.1312937 L23.7923913,35.1125437 L23.7923913,31.6789687 C26.5269546,30.0831461 28.4339999,27.4215737 29.033587,24.3640812 L29.4854348,22.8453437 C31.2636317,22.2801111 32.2950157,20.4700799 31.8505435,18.6946875 C31.6236388,17.764029 30.9233243,17.0126933 29.996413,16.705475 L29.996413,11.74615 C30.0093046,7.57120059 27.7381277,3.70798531 24.0414252,1.6168644 C20.3447228,-0.474256503 15.7864729,-0.474256503 12.0897704,1.6168644 C8.39306798,3.70798531 6.12189103,7.57120059 6.13478261,11.74615 L6.13478261,16.703775 C5.20567446,17.0101012 4.50335289,17.762422 4.27608696,18.6947937 C3.83157734,20.4701968 4.86304334,22.2802423 6.64130435,22.8453437 L7.09293478,24.363975 C7.69266112,27.4215256 9.59981177,30.0831181 12.3344565,31.6789687 L12.3344565,35.1128625 L4.63543478,37.5526812 C2.4851087,38.234275 0.854565217,39.875625 0.273913043,41.942825 C0.251195652,42.0233625 0.230434783,42.1042187 0.210543478,42.18635 C0.10441694,42.6437987 0.0528775434,43.1117279 0.0569565217,43.580775 L0.0569565217,49.063275 C0.0569565217,49.4740368 0.397609429,49.807025 0.817826087,49.807025 L35.7433696,49.807025 L35.7433696,48.319525 L1.57869565,48.319525 L1.57869565,43.580775 Z M19.0288043,11.961625 C19.9994565,12.971 23.0476087,15.6509437 28.4744565,16.1961125 L28.4744565,16.5786125 C26.3721739,16.5281437 20.1566304,16.0774312 15.2206522,12.6589438 L15.288913,12.6502313 C16.5482565,12.4924433 17.7970359,12.2625122 19.0288043,11.961625 L19.0288043,11.961625 Z M7.65641304,11.74615 C7.64436993,8.10318607 9.62569059,4.73190048 12.8512169,2.90701173 C16.0767431,1.08212299 20.0542351,1.08212299 23.2797614,2.90701173 C26.5052877,4.73190048 28.4866083,8.10318607 28.4745652,11.74615 L28.4745652,14.6982 C24.4892391,14.2560937 21.9358696,12.5307 20.7223913,11.4844562 C22.7577174,10.8316562 24.4913043,9.97336875 25.9040217,8.91426875 C26.2296023,8.66202992 26.2880138,8.20114197 26.0352456,7.87886624 C25.7824774,7.55659051 25.3119825,7.49207849 24.9782609,7.7339375 C22.0907609,9.89856875 18.023587,10.7980813 15.1202174,11.17155 C13.2165008,11.4199526 11.295324,11.5171707 9.37554348,11.46225 C9.17323378,11.4520883 8.97513088,11.5212077 8.82512836,11.6542932 C8.67512584,11.7873788 8.58560936,11.9734418 8.57641304,12.1712562 L8.39163043,16.1357625 C8.3822427,16.3885951 8.23555898,16.6173199 8.00684783,16.7357562 C7.89912453,16.7924878 7.77898197,16.8229594 7.65663043,16.8245812 L7.65641304,11.74615 Z M8.58130435,24.0529813 C8.57673913,24.0293938 8.57108696,24.0059125 8.56413043,23.9828563 L8.005,22.1022313 C7.9499818,21.7930588 7.70251569,21.5508207 7.38630435,21.4966063 C6.82869284,21.3999055 6.33689002,21.0819287 6.02765452,20.6181665 C5.71841903,20.1544044 5.61933034,19.5862179 5.75391304,19.0485 C5.86172301,18.5876565 6.2189712,18.2214834 6.68478261,18.094375 C7.36770564,18.4130234 8.16855209,18.3758972 8.81755938,17.9955024 C9.46656668,17.6151075 9.87734378,16.9420792 9.91152174,16.203125 L10.0622826,12.966325 C10.7173913,12.9721688 11.7570652,12.9602688 13.0284783,12.8718688 C16.421413,15.716075 20.5873913,16.9779 23.5168478,17.5362438 C26.7527174,18.1524938 29.1634783,18.0706812 29.2643478,18.0674938 C29.281413,18.0668562 29.2979348,18.0648375 29.3145652,18.0631375 C29.8365014,18.1561603 30.2520862,18.5432746 30.3722826,19.0483937 C30.4112571,19.204913 30.430926,19.3654297 30.4308696,19.5265187 C30.4329386,20.4980362 29.7190049,21.3298551 28.7398913,21.4967125 C28.4236285,21.5507915 28.1761283,21.7931056 28.1213043,22.1023375 L27.5619565,23.9829625 C27.5551449,24.0059833 27.5494203,24.0293583 27.5447826,24.0530875 C26.6871038,28.5113777 22.703788,31.7411084 18.0629348,31.7411084 C13.4220815,31.7411084 9.43876574,28.5113777 8.58108696,24.0530875 L8.58130435,24.0529813 Z M18.0632609,33.2287312 C19.5058436,33.2292516 20.9347739,32.9556478 22.2705435,32.4231437 L22.2705435,35.2068937 C19.608857,36.4457642 16.5176647,36.4457642 13.8559783,35.2068937 L13.8559783,32.4231437 C15.1917479,32.9556478 16.6206781,33.2292516 18.0632609,33.2287312 L18.0632609,33.2287312 Z" id="Shape" fill="#3592FF"></path>
                        <path d="M39.3995652,29.930625 C43.4243894,29.9279518 47.0991697,32.1668059 48.8693938,35.7001032 C50.639618,39.2334005 50.1959983,43.4438152 47.7261957,46.55025 L49.1755435,49.8811875 C49.2846218,50.1320144 49.2446115,50.4210707 49.071266,50.6345447 C48.8979205,50.8480186 48.6190085,50.9517132 48.3443478,50.9048 L42.8625,49.9673563 C38.9035316,51.318182 34.5019776,50.247389 31.6525669,47.2402473 C28.8031563,44.2331057 28.0475784,39.8612901 29.7282516,36.1060526 C31.4089248,32.3508151 35.2063435,29.9260479 39.3995652,29.930625 Z M47.8043478,43.4488125 C49.3473874,39.586228 47.9212418,35.1948152 44.3816004,32.9094278 C40.841959,30.6240404 36.1502088,31.0654028 33.1214061,33.9686969 C30.0926035,36.8719909 29.5493888,41.4486654 31.8176916,44.9527093 C34.0859943,48.4567532 38.5497304,49.9364481 42.5306522,48.503975 C42.6569478,48.4582113 42.7934158,48.4460742 42.926087,48.4688063 L47.2271739,49.204375 L46.1459783,46.7196125 C46.033156,46.4603317 46.0799089,46.1609926 46.2667391,45.9464313 C46.9178881,45.2033301 47.4375663,44.3591894 47.8043478,43.4488125 Z M42.7147826,38.1995313 C43.1349993,38.1995313 43.4756522,38.5325195 43.4756522,38.9432813 C43.4756522,39.354043 43.1349993,39.6870313 42.7147826,39.6870313 L36.0843478,39.6870313 C35.6641312,39.6870313 35.3234783,39.354043 35.3234783,38.9432813 C35.3234783,38.5325195 35.6641312,38.1995313 36.0843478,38.1995313 L42.7147826,38.1995313 Z M39.2365217,42.0918938 C39.6567384,42.0918938 39.9973913,42.424882 39.9973913,42.8356438 C39.9973913,43.2464055 39.6567384,43.5793938 39.2365217,43.5793938 L36.0843478,43.5793938 C35.6641312,43.5793938 35.3234783,43.2464055 35.3234783,42.8356438 C35.3234783,42.424882 35.6641312,42.0918938 36.0843478,42.0918938 L39.2365217,42.0918938 Z" id="Combined-Shape" fill="#D9DCEC"></path>
                    </g>
                </g>
            </g>
        </g>
    </g>
</svg>